<?xml version="1.0" encoding="UTF-8" standalone="no"?>
<svg
   xmlns:dc="http://purl.org/dc/elements/1.1/"
   xmlns:cc="http://creativecommons.org/ns#"
   xmlns:rdf="http://www.w3.org/1999/02/22-rdf-syntax-ns#"
   xmlns:svg="http://www.w3.org/2000/svg"
   xmlns="http://www.w3.org/2000/svg"
   xmlns:sodipodi="http://sodipodi.sourceforge.net/DTD/sodipodi-0.dtd"
   xmlns:inkscape="http://www.inkscape.org/namespaces/inkscape"
   viewBox="0.0 0.0 348.0 348.0"
   fill="none"
   version="1.1"
   id="svg6"
   sodipodi:docname="Lockpick Maze.svg"
   inkscape:version="0.92.3 (2405546, 2018-03-11)">
  <metadata
     id="metadata12">
    <rdf:RDF>
      <cc:Work
         rdf:about="">
        <dc:format>image/svg+xml</dc:format>
        <dc:type
           rdf:resource="http://purl.org/dc/dcmitype/StillImage" />
      </cc:Work>
    </rdf:RDF>
  </metadata>
  <defs
     id="defs10" />
  <sodipodi:namedview
     pagecolor="#ffffff"
     bordercolor="#666666"
     borderopacity="1"
     objecttolerance="10"
     gridtolerance="10"
     guidetolerance="10"
     inkscape:pageopacity="0"
     inkscape:pageshadow="2"
     inkscape:window-width="1920"
     inkscape:window-height="1001"
     id="namedview8"
     showgrid="false"
     inkscape:zoom="2.8284271"
     inkscape:cx="121.48756"
     inkscape:cy="206.60251"
     inkscape:window-x="-9"
     inkscape:window-y="-9"
     inkscape:window-maximized="1"
     inkscape:current-layer="svg6" />
  <path
     id="path2"
     d="M 5.078125,5.7753906 5.0800781,343.44531 H 341.99219 V 5.7753906 Z m 71.25,18.6914064 c 0.769698,0.09184 1.112857,0.978305 0.166016,1.947265 -0.05062,0.0518 -0.101599,0.102616 -0.152344,0.154297 -0.02689,0.05585 -0.05343,0.111994 -0.08008,0.167969 -0.01,0.03701 -0.06693,0.16845 -0.111328,0.238281 -0.0041,0.08652 -0.02555,0.160813 -0.05078,0.232422 -2.52e-4,0.0056 3.57e-4,0.003 0,0.0098 -0.0038,0.01507 -0.0086,0.02964 -0.01172,0.04492 -0.01491,0.07284 -0.02285,0.147133 -0.05273,0.214843 -0.0034,0.0077 -0.0097,0.01407 -0.01367,0.02148 -0.0057,0.01912 -0.0036,0.02548 -0.0098,0.04492 -0.0039,0.01231 -0.01442,0.01445 -0.02344,0.03125 -0.01441,0.05611 -0.02033,0.0913 -0.03906,0.154297 0.03536,-0.04431 -2.4e-4,-0.0034 0.04102,-0.05469 0.02157,-0.02683 -0.03288,0.05973 -0.05078,0.08984 -0.0082,0.02678 -0.0066,0.03681 -0.01563,0.06445 -0.01446,0.04405 -0.100557,0.155783 -0.08203,0.113281 0.02702,-0.06202 0.06249,-0.118563 0.09766,-0.177734 0.0045,-0.01473 0.0055,-0.02072 0.0098,-0.03516 -0.05193,0.06507 -0.02033,0.02895 -0.06055,0.08008 -0.0401,0.08968 -0.05965,0.139693 -0.08984,0.208984 -0.0022,0.0024 -0.01758,0.01913 -0.02148,0.02344 l -0.002,0.002 c -0.008,0.02395 -0.01291,0.04931 -0.02344,0.07227 -0.0082,0.01787 -0.01416,0.02231 -0.0332,0.04883 -0.001,0.01032 0.07138,-0.09704 0.05469,-0.07227 -0.01789,0.02653 -0.03851,0.05162 -0.05664,0.07813 -0.004,0.0055 -0.004,0.0046 -0.0078,0.0098 8.47e-4,-0.0011 0.0031,-5.45e-4 0.0039,-0.002 -0.0033,0.008 -0.0061,0.01653 -0.0098,0.02539 -0.03045,0.108579 -0.06122,0.217627 -0.0918,0.326172 0.0082,-0.0174 0.01493,-0.03547 0.02344,-0.05273 0.011,-0.02234 -0.009,0.03915 -0.01953,0.07227 0.01386,-0.02058 0.03441,-0.06048 0.04102,-0.06641 0.03427,-0.03076 -0.02265,0.06137 -0.05859,0.125 -0.0044,0.01358 -0.0052,0.01826 -0.0078,0.02734 -0.01235,0.02302 -0.04752,0.09232 -0.03711,0.06836 0.0088,-0.02032 0.0097,-0.02919 0.02734,-0.06055 -0.01204,0.0178 -0.01015,0.01192 -0.01953,0.02539 -0.0013,0.0044 -1.38e-4,0.0094 -0.002,0.01367 -0.01902,0.05352 -0.01753,0.03516 -0.04297,0.08789 v 0.002 c 0.0041,-0.01211 0.0013,0.03547 -0.002,0.05273 -0.01543,0.08194 -0.02071,0.16716 -0.05273,0.24414 -0.01054,0.02532 -0.02954,0.04644 -0.04297,0.07031 -0.0092,0.03794 -0.01946,0.07552 -0.0293,0.113281 0.0017,0.01201 0.0012,-0.0063 0.0059,0.03711 0.0011,0.01167 -7.9e-4,0.02349 0,0.03516 0.0026,-0.0045 0.0052,-0.0091 0.0078,-0.01367 -0.0083,0.01893 -6.05e-4,9.59e-4 -0.0078,0.01758 0.0099,0.15109 0.0032,0.303802 0.0039,0.455078 5.96e-4,0.05272 4.5e-5,0.105462 0,0.158203 -0.0015,-4.49e-4 0.0049,0.01444 0.01367,0.03125 6.39e-4,0.0016 0.0015,0.0025 0.002,0.0039 0.0013,0.0024 3.6e-4,0.0012 0.002,0.0039 0.01838,0.03591 0.02472,0.04559 0.02148,0.05469 -0.0044,0.01228 -0.01135,-0.02604 -0.01758,-0.03516 0.0079,0.02826 0.0094,0.04226 0.01563,0.06836 0.01407,0.01263 0.04538,0.04257 0.05469,0.05273 0.0014,0.0011 0.0025,0.0028 0.0039,0.0039 0.01021,0.01142 0.03828,0.05199 0.04492,0.06445 0.07102,0.09187 0.107351,0.135375 0.13086,0.160156 -0.0033,-0.0094 -0.0059,-0.01836 -0.0098,-0.02734 h -0.002 c -4.86e-4,-0.0011 4.97e-4,-0.0028 0,-0.0039 -0.0029,-0.0064 -0.0045,-0.01346 -0.0078,-0.01953 -0.02756,-0.02514 -0.0565,-0.04901 -0.08203,-0.07617 -0.0214,-0.02278 0.05665,0.03274 0.07422,0.05859 0.0035,0.0052 0.0048,0.01203 0.0078,0.01758 0.01802,0.01644 0.03489,0.03416 0.05273,0.05078 l 0.002,0.002 c 0.01312,0.01225 0.02645,0.02435 0.03906,0.03711 0.0068,0.0069 0.01355,0.01817 0.01563,0.02344 v 0.002 h -0.002 c -0.01521,-0.01256 -0.01346,-0.01132 -0.03906,-0.03516 0.0015,0.0017 0.0024,0.0041 0.0039,0.0059 0.01928,0.02129 0.03999,0.04045 0.06055,0.06055 0.0044,0.0011 0.0056,6.67e-4 0.0098,0.002 -0.0011,-0.0014 -0.0028,-0.0025 -0.0039,-0.0039 -0.002,-0.0026 -0.0039,-0.0052 -0.0059,-0.0078 0.0024,0.0025 0.0045,0.0023 0.0078,0.0059 l 0.002,0.002 c 0.0029,0.0031 0.0028,0.0026 0.0059,0.0059 h 0.002 c 0.0052,0.0014 0.0069,0.0046 0.01172,0.0059 -0.0041,-0.03716 0.18783,0.06997 0.25,0.113281 0.02079,0.0081 0.06463,0.03356 0.07813,0.04297 0.02578,0.0081 0.051,0.01759 0.07617,0.02734 h 0.002 c 0.01155,0.0038 0.02393,0.0051 0.03516,0.0098 0.02065,0.0086 0.03783,0.02296 0.05664,0.03516 0.0013,6.36e-4 0.0026,0.0013 0.0039,0.002 0.01354,0.0066 0.0275,0.01285 0.04102,0.01953 0.03814,0.0051 0.07736,0.0084 0.113281,0.02148 h 0.002 c 0.0096,0.0012 0.01995,-0.0028 0.0293,0 0.168523,0.04972 0.238339,0.07852 0.289062,0.125 0.0026,6.28e-4 0.0052,0.0013 0.0078,0.002 0.01281,0.0031 0.05029,0.01209 0.03711,0.01172 -0.01069,-3.04e-4 -0.01365,-0.0011 -0.03125,-0.0039 -0.0045,-7.04e-4 -0.0034,-0.0012 -0.0078,-0.002 7.35e-4,7.1e-4 0.0012,0.0032 0.002,0.0039 0.04111,0.0053 0.08193,0.0085 0.121094,0.02148 0.107362,0.0356 0.142752,0.06926 0.205078,0.11914 0.05132,0.01259 0.10046,0.02242 0.148437,0.04687 h 0.002 c 0.05048,0.0028 0.09994,0.01181 0.144531,0.0332 0.0071,0.0034 0.01053,0.0099 0.01758,0.01367 0.04469,0.0054 0.09056,0.005 0.132812,0.01758 0.0014,4.17e-4 0.0024,0.0015 0.0039,0.002 0.0976,-5.52e-4 0.195359,0.01238 0.302734,0.02539 1.024708,0.124166 0.897024,1.148786 -0.128906,1.035156 -0.06498,-0.0072 -0.119934,-0.0146 -0.179688,-0.01953 -0.0021,10e-4 -0.0038,0.0029 -0.0059,0.0039 -0.01239,-0.0027 -0.02474,-0.005 -0.03711,-0.0078 -0.07424,-0.01661 -0.148186,-0.03148 -0.222657,-0.04687 0.01347,0.0056 0.0276,0.0099 0.04102,0.01563 0.01119,0.0048 -0.02499,0.0011 -0.03711,0 -0.02431,-0.0023 -0.03234,-0.0034 -0.05078,-0.01367 -0.01142,-0.0064 -0.04609,-0.02183 -0.0332,-0.01953 0.02699,0.0047 0.05325,0.01203 0.08008,0.01758 -0.125457,-0.05209 -0.254187,-0.09932 -0.380859,-0.148438 0.0239,0.02102 0.04885,0.04006 0.08008,0.0625 0.01886,0.01355 0.02851,0.02526 0.04883,0.03711 -0.05926,-0.01812 -0.118619,-0.03608 -0.177734,-0.05469 -0.02533,-0.0032 -0.05135,-0.0038 -0.07617,-0.0098 -0.04244,-0.01016 -0.08094,-0.03561 -0.121094,-0.05273 -0.03477,0.0015 0.05316,0.01905 0.119141,0.03516 -0.0068,-0.01128 -0.0014,-0.0012 -0.0078,-0.01172 -0.101166,-0.04668 -0.195959,-0.08854 -0.228515,-0.09766 -0.07163,-0.02006 -0.02782,0.01126 -0.02734,-0.0078 -0.0019,-4.56e-4 -0.004,4.55e-4 -0.0059,0 -0.0025,-7.3e-4 -0.0053,-0.0012 -0.0078,-0.002 -0.002,-4.88e-4 -0.0039,-0.0015 -0.0059,-0.002 -0.214328,-0.07487 -0.106718,-0.03774 -0.07031,-0.02539 0.0015,0.0027 0.0029,0.0063 0.0039,0.0078 0.04697,0.02969 0.104262,0.0624 0.167969,0.11914 0.03134,0.02791 0.0649,0.05894 0.09766,0.08984 0.05469,0.01961 0.204974,0.101378 0.236328,0.130859 0.128417,0.08326 0.372519,0.25795 0.402344,0.25586 0.02494,0.03936 0.05178,0.07744 0.07617,0.117187 0.0048,0.005 0.01077,0.0087 0.01563,0.01367 -0.01212,-0.02473 -0.03977,-0.05703 -0.04492,-0.07617 -0.01593,-0.05919 0.06392,0.02934 0.136719,0.125 0.05834,0.02067 0.115867,0.04283 0.173828,0.06445 0.104028,0.05774 0.187457,0.11557 0.253906,0.171875 0.0057,-0.04427 0.03126,-0.01642 0.07813,0.08398 0.137965,0.149075 0.164143,0.267383 0.132813,0.3125 0.02425,0.06176 0.06311,0.156396 0.07227,0.179687 0.754446,1.921609 -2.812382,-1.328076 -2.00586,0.572266 0.13689,0.10006 0.354454,0.362043 0.376953,0.431641 0.134074,0.0331 0.277767,0.04699 0.386719,0.128906 0.09344,0.07025 -0.234536,-0.03025 -0.345703,-0.06641 -0.168242,-0.05474 -0.325592,-0.169343 -0.464844,-0.296876 -0.03621,-0.03316 -0.07915,-0.06038 -0.111328,-0.0957 -0.0025,-0.0021 -0.0054,-0.0037 -0.0078,-0.0059 -0.02517,-0.02808 -0.06081,-0.05089 -0.08203,-0.08008 -0.05321,-0.0732 0.09488,0.07716 0.201172,0.18164 -0.072,-0.08628 -0.155741,-0.161586 -0.238281,-0.238281 0.0032,0.0046 0.0088,0.01539 0.01172,0.01953 -0.01094,-0.0099 -0.0167,-0.01606 -0.0293,-0.02734 -0.003,-0.0012 -0.0069,-0.0047 -0.0098,-0.0059 0.01449,0.02061 0.03232,0.03887 0.04492,0.06055 0.0035,0.0061 0.0084,0.0114 0.01172,0.01758 0.0049,0.009 -0.01967,-0.02548 -0.01953,-0.02344 3.58e-4,0.0055 -0.03073,-0.03511 -0.05273,-0.0625 0.0042,0.0017 0.01117,0.006 0.01563,0.0078 -0.0019,-0.0027 -0.004,-0.0052 -0.0059,-0.0078 -0.0038,-0.0011 -0.008,-6.16e-4 -0.01172,-0.002 -0.0033,-9.32e-4 -0.0066,-0.003 -0.0098,-0.0039 -0.01901,-0.0054 -0.04704,-0.01158 -0.06055,-0.01563 -0.09961,-0.02979 -0.192671,-0.08151 -0.28711,-0.125 -0.01438,-0.0066 -0.02562,-0.017 -0.03906,-0.02539 -0.07499,-0.06589 -0.149818,-0.13114 -0.22461,-0.197266 -0.0076,-0.0051 -0.01414,-0.0089 -0.02148,-0.01367 0.02283,0.02524 0.04835,0.04823 0.07031,0.07422 0.02585,0.03058 -0.0286,-0.02833 -0.08594,-0.08398 -0.01919,-0.01216 -0.04429,-0.03006 -0.05859,-0.03711 -0.120179,-0.08193 -0.260581,-0.174849 -0.345703,-0.283203 -0.04574,-0.05823 -0.07543,-0.127284 -0.109375,-0.193359 -0.04742,0.06206 -0.113961,-0.02311 -0.183594,-0.148438 -0.03769,-0.0262 -0.07188,-0.06544 -0.103515,-0.140625 -0.05758,-0.03893 -0.111849,-0.0812 -0.152344,-0.136718 -0.02425,-0.03325 0.05006,0.03144 0.101562,0.07227 -0.07417,-0.07288 -0.03397,-0.03485 -0.0625,-0.06641 -0.01405,-0.01554 0.07996,0.06969 0.0957,0.08203 -0.0014,-0.0036 -0.0025,-0.0119 -0.0039,-0.01563 -0.08724,-0.07535 -0.171244,-0.153121 -0.261719,-0.224609 0.01059,0.01854 0.02289,0.03599 0.0332,0.05469 0.01662,0.03014 -0.08939,-0.101546 -0.0625,-0.08008 0.01011,0.0081 0.01913,0.01736 0.0293,0.02539 -0.02146,-0.03756 -0.04408,-0.07426 -0.06641,-0.111328 -0.0058,-0.0028 -0.01338,-0.01874 -0.01953,-0.02344 -0.0597,-0.0456 -0.136409,-0.167963 -0.232422,-0.339844 -0.0079,-0.0052 -0.01565,-0.01037 -0.02344,-0.01562 -0.02987,-0.02019 -0.04357,-0.05929 -0.04883,-0.107422 -0.01783,-0.02989 -0.0042,-0.0083 -0.02539,-0.04297 -0.111485,-0.387385 -0.07523,-0.240502 0.02734,-0.03125 0.01366,-0.317643 0.245223,-0.868745 -0.171875,-0.611328 0.01314,0.02863 0.01287,0.02629 0.02734,0.05859 0.02406,0.03583 0.01994,0.02538 0.05273,0.07813 0.0081,0.013 -0.02043,-0.02042 -0.03125,-0.03125 -0.01242,-0.02828 -0.0099,-0.02107 -0.02148,-0.04688 -0.01687,-0.02512 -0.02387,-0.03597 -0.03711,-0.05469 -0.02574,0.01627 -0.04144,0.02037 -0.07227,0.04297 0.0032,0.02388 0.004,0.0124 0.0059,0.02734 0.03794,0.07979 0.08879,0.153638 0.132812,0.230468 -0.104551,-0.147371 -0.117585,-0.169257 -0.130859,-0.220703 0.0098,0.08301 0.0012,0.04662 0.04102,0.183594 0.0055,0.01883 -0.01491,-0.03758 -0.01953,-0.05664 -0.01194,-0.04929 -0.02219,-0.09892 -0.0332,-0.148437 -3.02e-4,-0.0015 -0.0032,-0.009 -0.0039,-0.01172 -0.0011,-0.0027 -0.0028,-0.0051 -0.0039,-0.0078 -0.01281,-0.03155 -0.01045,-0.04574 -0.02148,-0.09961 -0.0061,-0.02957 -0.0087,-0.03588 -0.01172,-0.05469 -0.0049,-0.03409 -0.02221,-0.111311 -0.0332,-0.169922 -0.0081,-0.02723 -0.0212,-0.07077 -0.03125,-0.126953 -0.0745,-0.159336 -0.10172,-0.266431 -0.09766,-0.583985 2.02e-4,-0.128395 -1.51e-4,-0.256374 -0.002,-0.384765 -8.4e-5,-0.03092 -0.0061,-0.281021 0.0059,-0.292969 0.0016,-0.0016 0.0011,0.0038 0.002,0.0059 -0.0303,-0.325537 -0.0138,-0.575134 0.113282,-0.86914 -0.0062,0.01223 -0.01145,0.02486 -0.01758,0.03711 0.01343,-0.03717 0.0585,-0.146768 0.04102,-0.111328 -0.01309,0.02654 -0.01232,0.0485 -0.02344,0.07422 0.0073,-0.01458 0.01607,-0.02841 0.02344,-0.04297 0.008,-0.06636 0.0079,-0.134313 0.0293,-0.197266 0.0094,-0.02778 0.02859,-0.05163 0.04102,-0.07813 0.01732,-0.133127 0.03795,-0.26405 0.09961,-0.384765 4.17e-4,-0.0014 0.0016,-0.0045 0.002,-0.0059 0.01915,-0.06476 0.04949,-0.126199 0.07813,-0.1875 v -0.002 c 0.0019,-0.01281 -0.001,-0.02641 0.002,-0.03906 0.02272,-0.09652 0.06391,-0.187234 0.101563,-0.279297 0.02438,-0.106251 0.06147,-0.202574 0.162109,-0.378907 -0.0026,0.0038 0.0052,-0.0069 0.0078,-0.01172 0.0079,-0.01248 0.01001,-0.01279 0.01953,-0.0293 0.01494,-0.02836 0.02753,-0.05513 0.05078,-0.09375 0.0093,-0.02368 -7.98e-4,0.003 0.0098,-0.02344 0.0082,-0.04913 0.01065,-0.0997 0.02734,-0.146484 4.4e-5,-0.0019 -4.4e-5,-0.0039 0,-0.0059 6.28e-4,-0.02788 -2.76e-4,-0.05611 0,-0.08398 0.05378,-0.101813 0.09809,-0.209049 0.146484,-0.314453 0.0036,-0.02246 -0.0012,-0.04659 0.0059,-0.06836 0.02863,-0.08804 0.0621,-0.148067 0.09375,-0.216797 0.0095,-0.03777 0.01515,-0.08018 0.01563,-0.08203 -3.5e-5,4.18e-4 -0.0034,0.04766 -0.0039,0.05273 0.137391,-0.28644 0.237414,-0.34095 0.08398,-0.01953 0.09649,-0.117053 0.454559,-0.374917 0.388671,-0.238282 -0.07766,0.161046 -0.289104,0.20936 -0.427734,0.322266 -0.01284,0.01046 -0.02028,0.0257 -0.02734,0.04102 -0.0043,0.0081 -0.0071,0.01302 -0.01172,0.02148 -0.0095,0.04052 -0.01579,0.0821 -0.02344,0.123047 -0.03095,0.403296 -0.07104,1.215689 0.06055,1.46875 0.151667,-0.126612 0.295651,-0.238694 0.384766,-0.236328 0.06462,-0.109956 0.132452,-0.228727 0.214843,-0.410156 0.257246,-0.566465 -0.155134,-1.234242 -0.232422,-1.851563 -0.05248,0.04946 -0.16699,0.220014 -0.158203,0.148438 0.0047,-0.0382 0.250749,-0.266361 0.292969,-0.306641 0.373418,-0.356258 0.75106,-0.542616 1.083984,-0.599609 0.124847,-0.02137 0.243559,-0.02484 0.353516,-0.01172 z m -2.621094,3.271484 c -0.01257,0.0309 -0.03768,0.08936 -0.02539,0.06836 0.0086,-0.01462 0.0151,-0.03018 0.02344,-0.04492 8.23e-4,-0.0077 5.36e-4,-0.01573 0.002,-0.02344 z m -0.294922,3.021485 c 0.0015,0.0033 0.0062,0.01228 0.0078,0.01563 -0.01405,-0.06389 -0.0046,-0.04513 -0.02734,-0.134766 -0.0034,-0.01351 -8.33e-4,0.0273 0.002,0.04102 0.0095,0.0526 0.01142,0.04368 0.01758,0.07813 z m 0.0078,0.01563 c 0.01162,0.05285 0.01621,0.07281 0.02344,0.111328 0.01741,0.05829 0.07971,0.185237 0.150391,0.285156 0.0032,-0.002 0.0067,-0.002 0.0098,-0.0039 -0.0881,-0.191877 -0.144279,-0.309522 -0.183594,-0.392578 z m 0.658203,1.541015 c 0.0019,0.0021 0.0077,0.0057 0.0098,0.0078 -0.03968,-0.06551 -0.07658,-0.132352 -0.117188,-0.197266 -0.03839,-0.06137 0.07131,0.126711 0.107422,0.189453 z m 0.472656,0.564453 c 0.03091,0.02148 0.08626,0.05852 0.140625,0.08203 -0.03506,-0.03392 -0.07042,-0.06763 -0.105468,-0.101563 0.02403,0.02472 0.04918,0.04861 0.07227,0.07422 0.05153,0.05715 -0.07684,-0.07101 -0.166015,-0.160156 0.01887,0.04004 0.0392,0.07056 0.05859,0.105468 z m 0.140625,0.08203 c 0.0036,0.0035 0.0081,0.0062 0.01172,0.0098 l -0.0039,-0.0078 c -0.0025,-0.0011 -0.0054,-6.23e-4 -0.0078,-0.002 z m 0.01172,0.0098 c 0.0097,0.0194 0.02137,0.0374 0.03125,0.05664 0.0048,-0.0063 0.01129,-0.0024 0.01563,-0.01172 -0.01565,-0.01494 -0.03132,-0.0299 -0.04687,-0.04492 z m 0.544922,0.570313 c 0.0051,0.0032 0.01031,0.0063 0.01563,0.0098 -0.0083,-0.0092 -0.01696,-0.01822 -0.02539,-0.02734 -0.02705,-0.0231 -0.05204,-0.0484 -0.08008,-0.07031 -0.033,-0.02578 0.02987,0.02968 0.08984,0.08789 z m 0.550781,-3.09375 c -0.0025,-6.48e-4 -0.0032,-0.0013 -0.0059,-0.002 0.0029,0.0037 0.0049,0.008 0.0078,0.01172 0.0027,0.0011 0.0051,0.0028 0.0078,0.0039 -0.0064,-0.0067 -0.0036,-0.0071 -0.0098,-0.01367 z m -0.380859,-1.310547 c 0.02962,-0.121823 0.06203,-0.242595 0.0957,-0.363281 -0.005,0.01026 -0.0028,0.0077 -0.0078,0.01758 -0.03016,0.121897 -0.05951,0.243814 -0.09766,0.363281 0.0034,-0.0058 0.0065,-0.01176 0.0098,-0.01758 z m 0.08789,-0.345703 c 0.0045,-0.01826 0.0092,-0.03641 0.01367,-0.05469 -0.04091,0.0968 -0.08308,0.192733 -0.125,0.289063 -0.05257,0.08164 0.0443,-0.101244 0.111328,-0.234375 z m 0.01367,-0.05469 c 0.0056,-0.01317 0.01196,-0.02593 0.01758,-0.03906 -0.0034,0.0046 -0.007,0.0101 -0.0098,0.01367 -0.0021,0.0086 -0.0057,0.01678 -0.0078,0.02539 z m 0.01758,-0.03906 c 0.0078,-0.0106 0.01199,-0.01482 0.02344,-0.03125 0.0027,-0.0094 0.0023,-0.01968 0.0039,-0.0293 -0.0089,0.02028 -0.01862,0.04017 -0.02734,0.06055 z m 0.04297,-0.05664 c 0.01043,-0.01855 0.0073,-0.01705 0.01758,-0.03516 0.0095,-0.02922 0.009,-0.03153 0.01758,-0.05859 -0.0047,0.007 -0.01045,0.01343 -0.01563,0.02148 -0.0067,0.02398 -0.01283,0.04827 -0.01953,0.07227 z m 0.01953,-0.07227 c 0.0038,-0.01367 0.0079,-0.02735 0.01172,-0.04102 -0.01146,0.02429 -0.02026,0.04972 -0.03125,0.07422 0.008,-0.01309 0.01201,-0.02151 0.01953,-0.0332 z m 0.103516,-0.367187 c 0.0016,-0.0058 0.0023,-0.01182 0.0039,-0.01758 -8.91e-4,0.0022 -0.0031,0.0057 -0.0039,0.0078 -0.07023,0.174377 -0.07046,0.177628 0,0.0098 z m 0.01563,-0.03906 c 0.0172,-0.04101 0.03887,-0.0803 0.05664,-0.121093 -0.0025,0.0027 -0.01065,0.01034 -0.01367,0.01367 -9.7e-4,0.0038 -4.79e-4,0.008 -0.002,0.01172 -0.0023,0.0071 -0.02933,0.06739 -0.04102,0.0957 z m 0.05859,-0.123046 c 0.0315,-0.07226 0.06534,-0.143886 0.09961,-0.214844 -0.03318,0.04234 -0.02755,0.0375 -0.05273,0.07031 -0.01558,0.04805 -0.03101,0.09659 -0.04687,0.144532 z m 0.09961,-0.214844 c 0.008,-0.01016 0.0033,-0.0068 0.01172,-0.01758 0.02898,-0.06481 0.09226,-0.198511 0.06641,-0.150391 -0.02916,0.05428 -0.05132,0.112461 -0.07813,0.167969 z m 0.144531,-0.328125 c 0.02467,-0.0824 0.02584,-0.119888 0.04297,-0.193359 -0.0045,0.0067 -0.0066,0.01519 -0.01172,0.02148 -0.01134,0.05455 -0.03484,0.134671 -0.05273,0.207031 0.0077,-0.01139 0.01499,-0.02316 0.02148,-0.03516 z m 0.04297,-0.193359 c 0.0091,-0.01347 0.01656,-0.02793 0.02344,-0.04297 0.0073,-0.0159 0.0058,-0.03785 0.01172,-0.05469 0.002,-0.04375 0.0019,-0.06407 0.002,-0.07617 -0.01011,0.05497 -0.02174,0.1079 -0.03711,0.173829 z m 0.08594,-0.330079 c 2.22e-4,-0.0047 0.0017,-0.009 0.002,-0.01367 -0.0022,0.0045 -0.0037,0.0092 -0.0059,0.01367 -0.0012,0.0107 -3e-4,-0.0019 -0.002,0.01172 0.002,-0.0032 0.0039,-0.0087 0.0059,-0.01172 z m -0.0059,0.01172 c -0.0049,0.0078 -0.01005,0.01827 -0.01563,0.02734 -0.0016,0.01031 -0.008,0.028 -0.0098,0.03906 0.0073,-0.01285 0.01391,-0.02642 0.02148,-0.03906 0.0038,-0.04814 7.55e-4,0.0042 0.0039,-0.02734 z m -0.01563,0.02734 c 2.25e-4,-0.0015 -2.2e-4,-0.0044 0,-0.0059 -0.0035,0.0071 -0.0063,0.01444 -0.0098,0.02148 0.0035,-0.0058 0.0065,-0.01028 0.0098,-0.01563 z m 0,-0.0059 c 0.0055,-0.01123 0.0121,-0.02196 0.01758,-0.0332 0.01408,-0.122926 0.0072,-0.130303 -0.01758,0.0332 z m 0.02344,-0.04687 c 0.03638,-0.07485 0.0736,-0.149459 0.109375,-0.22461 0.0051,-0.01888 0.01256,-0.06498 0.01758,-0.103516 -0.01473,0.01528 -0.03035,0.0295 -0.04492,0.04492 -0.0094,0.01 -0.03913,0.04696 -0.05664,0.06836 -0.01295,0.06799 -0.02192,0.139264 -0.02539,0.214844 z m -1.927735,-0.488282 c -0.0069,0.01281 -0.01341,0.01425 -0.01563,0.02344 -0.002,0.0083 -0.0021,0.01704 -0.0039,0.02539 0.0065,-0.01009 0.0111,-0.02114 0.01758,-0.03125 2e-6,-0.006 0.0019,-0.01161 0.002,-0.01758 z m 68.021481,0.896485 c 0.0815,-0.01357 0.18361,8.6e-4 0.29883,0.05664 h 0.002 c 0.0672,0.03282 0.10947,0.06403 0.14062,0.09766 0.0177,0.0156 0.0541,0.04618 0.0898,0.08203 -0.004,-0.0027 -0.0116,-0.03377 -0.0117,-0.02539 0.0137,0.01877 0.0589,0.07157 0.041,0.05664 -0.0194,-0.01623 -0.0171,-0.01906 -0.0293,-0.03125 0.006,0.0038 0.005,0.01851 0.0156,0.03711 0.005,0.0039 0.0115,0.0052 0.0156,0.0098 l 0.002,0.002 c 0.005,0.003 0.006,0.0028 0.0137,0.0098 -0.008,-0.0099 0.0137,0.01346 0.0273,0.02734 l 0.002,0.002 v 0.002 c -7.8e-4,3.48e-4 0.006,0.0044 0.004,0.0039 h 0.002 l 0.002,0.002 c 0.003,0.0033 0.003,0.0027 0.006,0.0059 0.002,0.0017 0.002,0.0042 0.004,0.0059 0.002,0.002 0.004,0.0039 0.006,0.0059 0.006,0.0059 0.0117,0.01182 0.0176,0.01758 0.002,0.0019 0.004,0.004 0.006,0.0059 0.005,0.0053 0.005,0.0065 0.008,0.0098 0.009,0.0096 0.0182,0.01794 0.0274,0.02734 0.003,0.0091 0.009,0.01821 0.0117,0.02734 l 0.002,0.002 c 0.0254,0.02325 0.0506,0.06761 0.0625,0.105468 4.1e-4,0.0013 0.006,0.0026 0.006,0.0039 5e-4,7.46e-4 0.004,0.0034 0.004,0.0039 0.005,0.0098 0.007,0.02119 0.0117,0.03125 0.007,0.01055 0.012,0.01502 0.0156,0.02344 0.003,0.0063 0.004,0.01311 0.006,0.01953 0.002,-0.0018 0.014,0.0377 0.0215,0.05859 0.002,0.0073 0.005,0.0142 0.008,0.02148 0.004,0.01376 0.004,0.0054 0.01,0.02539 0.003,0.01008 4.9e-4,0.01442 0.004,0.03125 0.009,0.01781 0.0195,0.0339 0.0293,0.05078 -0.002,-0.03011 5.9e-4,0.02161 0.002,0.03125 1.5e-4,0.0012 -1.7e-4,0.0023 0,0.0039 8.7e-4,0.0081 -10e-4,0.0046 0,0.01953 0.009,0.01943 0.0267,0.02489 0.0371,0.06836 0.002,0.0075 -3.4e-4,0.01569 0,0.02344 0.007,0.0113 0.009,0.01285 0.0137,0.01953 0.008,0.02164 -2.2e-4,7.65e-4 0.006,0.01563 0.003,0.0054 0.004,0.0062 0.006,0.0098 0.003,0.0055 0.002,0.0096 0.006,0.01758 0.006,0.0089 0.008,0.01038 0.0117,0.01563 0.11165,0.309167 0.0208,0.07036 0.0274,0.06445 0.0102,-0.0093 0.0101,0.02568 0.0137,0.03906 5.5e-4,0.001 -5.4e-4,0.0029 0,0.0039 0.008,0.01514 0.0173,0.0289 0.0234,0.04492 5.6e-4,0.0014 8.1e-4,0.0023 0.002,0.0039 v 0.002 c 0.002,0.0032 0.005,0.0034 0.006,0.0059 0.006,0.01043 0.009,0.02242 0.0137,0.0332 0.001,0.0034 0.003,0.0064 0.004,0.0098 v 0.002 c 0.008,0.01915 0.0174,0.03862 0.0234,0.05859 0.003,0.0073 0.009,0.01422 0.0117,0.02148 0.009,0.01064 0.0157,0.02293 0.0234,0.03516 -0.0136,-0.03744 -0.0833,-0.167803 -0.004,-0.02148 -5.5e-4,-0.01392 0.002,0.01162 0.004,0.02148 3.5e-4,0.0019 0.002,0.0036 0.002,0.0039 0.004,0.0068 0.0102,0.01421 0.0137,0.01953 0.0171,0.02605 0.0248,0.05814 0.0351,0.08789 0.006,0.0187 0.0185,0.03572 0.0234,0.05469 v 0.002 c 0.002,0.0046 0.005,0.0089 0.006,0.01367 0.002,0.0057 -2.5e-4,0.0086 0.002,0.01758 0.003,0.0065 0.005,0.01306 0.008,0.01953 0.001,0.0019 0.009,0.0025 0.01,0.0039 8.4e-4,-0.120043 0.0397,0.09215 0.041,0.146484 v 0.002 c 0.008,0.01467 0.0162,0.02901 0.0215,0.04492 0.008,0.02242 0.004,0.03894 0.006,0.05664 0.002,0.005 0.008,0.0085 0.01,0.01367 0.0235,0.06012 0.0169,0.09401 0.0137,0.150391 -0.004,0.02314 -2e-4,0.04697 0,0.07031 7e-5,0.03404 -6e-5,0.06752 0,0.101563 -5e-5,0.0029 4e-5,0.03059 0,0.04102 0,0.002 3e-5,0.0078 0,0.0078 -0.001,1.7e-5 -0.003,-5e-6 -0.004,0 l -0.002,0.002 c 0.002,5.02e-4 0.004,-5.54e-4 0.006,0 0.047,0.01648 -0.0171,0.08642 -0.043,0.138672 -0.004,0.01922 -0.0142,0.05983 -0.0156,0.06836 l -0.002,0.002 c -0.006,0.0082 -0.0114,0.01694 -0.0176,0.02539 0.005,-0.01273 -0.003,0.01 -0.004,0.0098 -3.7e-4,-2.1e-4 -0.003,0.0075 -0.004,0.0078 -10e-4,2.76e-4 -0.004,0.0049 -0.006,0.0059 -0.002,0.004 -0.004,0.0045 -0.008,0.01172 l -0.002,0.002 c -0.006,0.01289 -0.0118,0.03028 -0.006,0.02148 -0.0126,0.02255 -0.0213,0.04731 -0.0117,0.0332 -0.0145,0.02102 -0.0304,0.04148 -0.0449,0.0625 l -0.004,0.02734 -0.002,0.002 -0.002,0.01367 c -0.007,0.01126 -0.0235,0.04558 -0.0195,0.0332 0.005,-0.01667 0.0238,-0.04803 0.0215,-0.04687 -0.009,0.01235 -0.0165,0.02624 -0.0254,0.03906 -0.007,0.01742 -0.0139,0.03452 -0.0234,0.05078 -0.003,0.0054 -0.007,0.0061 -0.0137,0.01367 0.004,-0.0037 0.0173,-0.03136 0.0234,-0.04492 -0.0142,0.02167 -0.0304,0.04185 -0.043,0.06445 -0.008,0.0081 -0.0142,0.01672 -0.0176,0.01758 -0.007,0.0081 -0.009,0.01691 -0.0137,0.02539 -0.0376,0.02232 -0.0179,0.0096 -0.0449,0.02539 -0.003,0.0086 -0.007,0.01681 -0.01,0.02539 -0.0683,0.06114 -0.0938,0.08929 -0.12305,0.105469 -0.004,0.0051 -0.0227,0.0247 -0.0254,0.02734 -2.7e-4,1.28e-4 -0.004,0.0038 -0.004,0.0039 -0.003,0.0011 -0.0343,0.0342 -0.0449,0.04102 0.006,-0.01051 0.004,-0.0131 0.01,-0.0293 -0.003,0.012 -0.009,0.0224 -0.0137,0.0332 -0.007,0.0048 -0.0154,0.01224 -0.0274,0.02344 -0.002,0.0028 -0.002,0.005 -0.004,0.0078 0.0102,-0.0069 0.0172,-0.01648 0.0273,-0.02344 h 0.002 c -0.001,0.0025 -0.002,0.0054 -0.004,0.0078 v 0.002 c -0.003,0.0046 -0.002,0.01159 -0.006,0.01563 -0.009,0.0096 -0.0219,0.01275 -0.0332,0.02148 -0.0179,0.02952 -0.0387,0.06479 -0.041,0.06836 l -0.0293,0.02148 v 0.0039 c -0.0106,0.04485 -0.0588,0.0672 -0.0957,0.09766 0.0141,-0.01095 0.0225,-0.02958 0.0391,-0.03125 0.0142,-0.0014 -0.017,0.01758 -0.0312,0.0293 l -0.002,0.0039 c -3.8e-4,4.71e-4 -0.003,0.0028 -0.004,0.0039 -0.002,0.0019 -0.002,0.003 -0.004,0.0039 -0.004,0.0042 -0.004,0.0036 -0.01,0.0098 -0.009,0.0087 -0.0161,0.01396 -0.0215,0.01953 -0.0132,0.01365 -0.0468,0.03843 -0.0566,0.04297 -7.8e-4,3.63e-4 -0.005,0.0035 -0.006,0.0039 -0.0168,0.02224 -0.0695,0.05031 -0.11718,0.06445 -0.002,0.0038 -0.006,0.0079 -0.008,0.01172 -0.005,0.0015 -0.004,3.59e-4 -0.008,0.002 h -0.002 c 0.006,0.0025 -0.0196,0.0076 -0.0293,0.0098 -0.0146,0.0033 -0.0316,0.01021 -0.043,0.0078 -0.003,-6.41e-4 -0.011,0.006 -0.0117,0.002 -0.003,8.52e-4 -0.01,2.75e-4 -0.0156,0.002 0.002,-0.0023 1.5e-4,-0.0055 0.002,-0.0078 -0.004,0.0026 -0.012,0.0096 -0.0156,0.01172 -0.001,2.28e-4 -0.003,0.0018 -0.004,0.002 -0.01,0.0057 -0.0342,0.0084 -0.0469,0.01172 -0.003,3.6e-5 -0.009,7.4e-5 -0.0117,0 10e-4,4.25e-4 0.007,0.0016 0.008,0.002 -0.009,0.0022 -0.0203,0.0041 -0.0332,0.0059 -0.0216,0.0081 -0.0154,0.0018 -0.0352,0.0078 -0.0107,0.0032 -0.0109,0.0018 -0.0195,0.0039 -0.008,0.0085 -0.017,0.01693 -0.0254,0.02539 -0.0299,0.02051 -0.0549,0.03068 -0.0859,0.04297 -0.002,0.0029 0.0105,-0.01408 0.01,-0.01172 -0.001,1.84e-4 -0.008,0.0056 -0.01,0.0059 -0.002,0.0033 7e-5,0.0046 -0.002,0.0078 -0.009,0.0033 -0.0122,0.0085 -0.0234,0.01172 -0.006,0.0018 -0.01,-7.22e-4 -0.0195,0.002 -0.0215,0.0091 -0.0176,8.24e-4 -0.0742,0.03906 -0.0252,0.01704 0.0561,-0.02498 0.0859,-0.03125 0.0158,-0.0033 -0.0278,0.0179 -0.043,0.02344 -0.0157,0.0057 -0.0326,0.0097 -0.0488,0.01367 -0.018,0.0075 -0.0379,0.0056 -0.0566,0.0098 -0.008,0.0052 -0.008,0.009 -0.0137,0.01172 -0.01,0.0048 -0.0166,6.3e-5 -0.0254,0.0039 -0.017,0.0074 -0.0336,0.0035 -0.0488,0.0078 -0.0388,0.01912 -0.08,0.03565 -0.11523,0.06055 -0.003,5.63e-4 -0.008,0.0046 -0.0137,0.0059 -0.002,0.0013 -0.01,0.0023 -0.0117,0.0039 l -0.002,0.002 c -0.0267,0.01992 -0.0443,0.0253 -0.0781,0.04102 -0.002,0.0012 -0.002,0.0031 -0.004,0.0039 -0.0288,0.01334 -0.0372,0.0059 -0.0527,0.01172 -0.007,0.0028 -0.0192,0.0042 -0.0254,0.0059 -0.008,0.0056 -0.009,0.0078 -0.0137,0.01172 -0.0185,0.0067 -0.0131,0.0011 -0.0254,0.0059 -0.002,-6.78e-4 -0.0181,0.01315 -0.0156,0.0078 0.002,-0.0043 0.009,-0.0041 0.0117,-0.0078 -0.0764,0.02996 -0.0649,0.03667 -0.16797,0.03711 -0.47276,0.002 0.38851,-0.445668 0.14258,-0.50586 -0.007,0.01095 -0.0116,0.0231 -0.0195,0.0332 -0.008,0.0099 0.0116,-0.01944 0.0176,-0.0332 -0.0224,-0.0052 -0.0397,-0.01343 -0.082,-0.01172 -0.0337,0.0014 -0.0447,0.01087 -0.0547,0.01367 0.0459,-0.02074 0.0342,-0.01651 0.0527,-0.02539 -0.005,0.0016 -0.0101,0.0031 -0.0156,0.0059 0.008,-0.0035 0.0143,-0.008 0.0215,-0.01172 -0.002,0.0019 -0.003,0.0047 -0.004,0.0059 8e-4,-3.63e-4 4.4e-4,-9.9e-4 0.008,-0.0039 0.0126,-0.0059 0.006,-0.0029 0.0156,-0.0078 -0.005,0.0013 -0.0104,0.0026 -0.0156,0.0039 0.004,-0.0017 0.006,-0.0043 0.01,-0.0059 0.003,-0.0022 0.004,-0.0024 0.006,-0.0039 0.008,-0.0033 0.0137,-0.0055 0.0234,-0.0098 l 0.002,-0.002 c 0.007,-0.0031 0.0119,-0.0034 0.0176,-0.0059 9.6e-4,-5.72e-4 0.003,-0.0013 0.004,-0.002 0.005,-0.0022 0.0162,-0.0076 0.0176,-0.0078 0.005,-0.0026 0.0132,-0.0052 0.0137,-0.0059 0.0139,-0.006 0.0296,-0.01743 0.0371,-0.01953 0.003,-0.0016 0.007,-0.0023 0.01,-0.0039 v -0.002 c 0.006,-0.0019 0.0138,-0.0064 0.0137,-0.0059 8.6e-4,-8.35e-4 0.003,-0.0011 0.004,-0.002 0.0197,-0.0174 0.0515,-0.02356 0.0801,-0.0332 -0.0152,0.0084 -0.0542,0.04373 -0.0391,0.03516 0.0106,-0.006 0.24244,-0.164962 0.0293,-0.02344 0.0183,-0.01682 0.0217,-0.01406 0.0293,-0.01953 0.0117,-0.0032 0.0195,-0.01133 0.0312,-0.01367 l 0.002,-0.002 c 0.003,-5.54e-4 0.019,-0.0042 0.0254,-0.0059 0.0146,-0.0023 0.041,-0.0073 0.043,-0.0078 0.0176,0.0041 -0.01,-0.0035 -0.0332,0.0039 0.0225,-0.0062 0.0442,-0.01273 0.0762,-0.02148 h 0.002 l 0.002,-0.002 c 0.001,-1.89e-4 0.002,-0.0016 0.004,-0.002 h 0.002 l 0.002,-0.002 c 0.001,-4.14e-4 0.009,-0.0016 0.01,-0.002 0.003,-0.0013 0.008,-0.002 0.0117,-0.0039 -0.003,2.28e-4 -0.005,-3.31e-4 -0.008,0 0.0129,-0.0086 0.042,-0.02563 0.0547,-0.0293 l 0.002,-0.002 c 0.002,-0.0017 0.009,-0.0022 0.0117,-0.0039 0.0224,-0.0062 0.0267,-0.0066 0.0898,-0.03125 0.0186,-0.0073 -0.0399,0.0069 -0.0586,0.01367 0.0212,-0.01235 0.0414,-0.02634 0.0625,-0.03906 -0.006,0.0021 -0.013,0.0038 -0.0195,0.0059 -0.0138,0.0074 -0.0168,0.0078 -0.0254,0.01172 -0.004,0.0019 0.008,-0.0052 0.0117,-0.0078 0.005,-0.0015 0.009,-0.0024 0.0137,-0.0039 0.0236,-0.01267 0.056,-0.03104 0.043,-0.02148 -0.008,0.0056 -0.0154,0.01075 -0.0234,0.01563 0.023,-0.0074 0.0453,-0.01599 0.0684,-0.02344 h 0.002 c 0.0177,-0.0057 0.035,-0.01185 0.0527,-0.01758 -0.0133,0.002 -0.0263,0.0041 -0.0391,0.0078 -0.0811,0.0274 -0.0997,0.05097 0.0742,-0.02148 -6.7e-4,3.63e-4 0.005,-5.03e-4 0.004,0 0.003,-7.25e-4 0.008,-0.0011 0.0117,-0.002 0.002,-0.0011 0.007,-0.0032 0.008,-0.0039 0.006,-0.0032 0.006,-0.0028 0.0293,-0.0098 0.002,-5.48e-4 -0.006,7.16e-4 -0.008,0 0.0126,-0.0066 0.0194,-0.0087 0.0293,-0.01172 -0.002,-1.82e-4 0.004,-0.003 0.006,-0.0039 0.002,-4.98e-4 0.002,-0.0013 0.004,-0.002 h 0.002 v -0.002 c 10e-4,-4.23e-4 0.003,4.1e-4 0.004,0 0.002,-6.65e-4 0.004,-0.0014 0.006,-0.002 0.002,-5.98e-4 0.004,-0.0015 0.006,-0.002 h 0.002 l 0.002,-0.002 c -0.004,-0.04416 6.6e-4,-0.07825 0.0215,-0.0293 h 0.004 c 0.003,0.0059 0.0116,2.46e-4 0.0195,-0.0059 0.006,-7.97e-4 0.0131,-0.0013 0.0195,-0.002 -0.0193,0.02442 -0.0316,0.06952 -0.0195,0.01953 0.0146,-0.01326 0.0218,-0.01472 0.0293,-0.02148 -0.003,2.69e-4 -0.005,-2.56e-4 -0.008,0 -0.002,3.35e-4 -0.004,-2.91e-4 -0.006,0 l 0.002,-0.002 c -10e-4,-6.23e-4 0.006,-9.65e-4 0.0156,-0.0039 h 0.002 c 0,0 0,-0.002 0,-0.002 0.003,-0.0016 0.007,-0.0047 0.01,-0.0059 -0.003,8.98e-4 -0.005,9.53e-4 -0.008,0.002 0.006,-0.0051 0.0141,-0.0069 0.0215,-0.0098 h 0.002 l 0.002,-0.002 c 0.002,-7.45e-4 0.004,-0.0011 0.006,-0.002 0.003,-0.002 0.006,-0.0042 0.01,-0.0059 0.006,-0.0043 -0.014,0.0063 -0.0215,0.0078 -0.004,7.4e-4 0.006,-0.0046 0.01,-0.0059 0.004,-0.0013 0.008,-9.19e-4 0.0117,-0.002 0.002,-8.68e-4 0.004,-0.0011 0.006,-0.002 -0.001,5.57e-4 0.0136,-0.01179 0.006,-0.0078 0.008,-0.0043 0.009,-0.0031 0.0117,-0.0039 0.008,-0.0068 0.0148,-0.01499 0.0234,-0.02148 -0.001,0.002 -0.003,0.0038 -0.004,0.0059 -0.002,0.01035 -9.6e-4,0.008 -0.002,0.0078 6e-4,-2.27e-4 0.003,3.87e-4 0.004,0 0,0 0,-0.002 0,-0.002 0,0 -0.002,0 -0.002,0 9.6e-4,-7.31e-4 9.5e-4,-0.0035 0.002,-0.0039 0,0 0.002,-0.002 0.002,-0.002 0.001,-0.0033 0.003,-0.0065 0.004,-0.0098 0.001,-0.0011 0.002,-0.0028 0.004,-0.0039 0.005,-0.01324 0.005,-0.02741 0.0117,-0.03711 0.0183,-0.02701 0.0153,-0.01814 0.0449,-0.03906 l 0.002,-0.002 c 0.0246,-0.02947 0.15189,-0.164981 0.0215,-0.02539 0.0129,-0.01217 0.0259,-0.02514 0.0391,-0.03711 l 0.002,-0.002 c 0.002,-10e-4 7.6e-4,0.001 0.01,-0.002 8.7e-4,-0.0016 0.006,-0.0088 0.008,-0.01172 0.004,-0.0041 0.009,-0.0076 0.0137,-0.01172 6.7e-4,-8.74e-4 8.1e-4,-0.003 0.002,-0.0039 0.006,-0.0057 0.006,-0.0047 0.0117,-0.0098 -0.005,0.0041 -0.005,0.0019 -0.0117,0.0078 0.004,-0.0052 0.006,-0.01365 0.0117,-0.02148 -0.0156,0.01457 -7.7e-4,0.0083 -0.0293,0.03125 -0.019,0.01534 0.0573,-0.07842 0.043,-0.05859 -0.0121,0.01668 -0.006,0.01719 -0.0137,0.02734 0.0366,-0.0343 0.0694,-0.06327 0.0723,-0.07031 3e-4,-7.38e-4 0.005,-0.0025 0.008,-0.0039 -0.007,0.0078 -0.0247,0.03019 -0.043,0.05273 0.0776,-0.06858 0.0696,-0.06381 0.0644,-0.06641 0.003,-0.0017 0.009,-0.0035 0.01,-0.0039 l 0.002,-0.002 c 8.9e-4,-0.0011 8.2e-4,-0.0028 0.002,-0.0039 0.006,-0.008 0.0132,-0.01545 0.0195,-0.02344 0.007,-0.0051 0.0124,-0.01235 0.0195,-0.01758 0.006,-0.0044 0.0121,-0.0086 0.0176,-0.01367 -0.001,0.0026 -0.002,0.0041 -0.004,0.0078 -0.0103,0.0029 0.0235,-0.007 0.006,-0.002 0.001,-0.0029 0.003,-0.007 0.004,-0.0098 0.003,-0.0028 0.007,-0.0071 0.01,-0.0098 0.008,-0.01479 0.0271,-0.03279 0.0371,-0.04492 0.007,-0.03105 0.0197,-0.06167 0.0547,-0.109375 0.003,-0.0045 0.01,-0.0057 0.0137,-0.0098 l 0.004,-0.002 c 0.005,-0.01321 0.008,-0.02644 0.0137,-0.03906 0.002,-0.0037 0.004,-0.0061 0.008,-0.01172 0.005,-0.01371 -0.004,0.0056 0.004,-0.01367 0.001,-0.0017 0.001,-0.0044 0.002,-0.0059 -5.2e-4,0.0024 -0.002,-0.0054 -0.002,-0.0078 -2.2e-4,-0.0028 4.1e-4,-0.0049 0,-0.0078 -0.001,0.0039 -0.001,0.0085 -0.004,0.01172 -0.005,0.0066 9.1e-4,-0.01554 0.004,-0.02344 0.001,-0.0033 0.003,-0.0065 0.004,-0.0098 0,0 0.002,-0.002 0.002,-0.002 0.003,-0.0088 0.007,-0.01777 0.0117,-0.02539 0.002,-0.0029 0.002,-0.0072 0.004,-0.0098 0,0 0.002,-0.002 0.002,-0.002 9.5e-4,-0.0025 6.1e-4,-0.0045 0.002,-0.0078 0.002,-0.0038 0.003,-0.0068 0.006,-0.0098 6.1e-4,-6.45e-4 0.001,-0.0014 0.002,-0.002 4.6e-4,-0.02345 0.002,-0.04683 0.002,-0.07031 -6.6e-4,-0.04334 -0.004,-0.08777 0.002,-0.13086 0.003,0.06762 0.0167,0.08653 0.0371,0.113282 -0.0201,-0.04915 -0.0148,-0.06076 -0.0215,-0.07813 -0.0214,-0.06192 -0.014,-0.04296 -0.0215,-0.07813 -8e-4,-0.0037 -0.003,-0.0046 -0.004,-0.0078 -2.3e-4,0.0016 -0.002,-0.005 -0.002,-0.0039 -0.002,-0.0079 -0.008,-0.01548 -0.01,-0.02344 -0.002,-0.0054 -0.003,-0.0086 -0.006,-0.02148 0.002,0.0052 0.006,0.01419 0.008,0.01953 0.002,0.0053 0.006,0.01331 0.008,0.01563 3e-5,-0.0062 0.002,-3.28e-4 0.002,-0.0098 0.0271,0.03104 0.0811,0.09243 -0.0254,-0.05859 10e-4,0.0027 0.006,0.02236 0.006,0.01953 -3e-5,-7.5e-4 -1e-5,0.0035 0,0.0059 -0.002,-0.0084 -0.002,-0.0018 -0.004,-0.01172 -0.003,-0.0058 -4.2e-4,-0.0058 -0.004,-0.01172 -0.003,-0.0063 -0.004,-0.0051 -0.008,-0.01172 0.002,0.0035 0.004,0.0033 0.008,0.0078 h 0.002 c -0.006,-0.02165 -0.0106,-0.04327 -0.0176,-0.06445 -0.003,-0.0084 0.003,0.0209 0.008,0.04297 6.2e-4,8.88e-4 8.3e-4,0.0025 0.002,0.0039 3.9e-4,0.002 7e-5,0.0045 0,0.0059 -0.003,-0.0045 -5e-5,-0.003 -0.004,-0.0078 -0.003,-0.007 -0.0131,-0.02298 -0.01,-0.01758 0.004,0.0049 0.004,0.0039 0.006,0.0059 -0.003,-0.0041 -0.0167,-0.03651 -0.0254,-0.05469 -1.7e-4,-0.0013 2.6e-4,-0.0023 0,-0.0039 -0.002,-0.0029 -8e-4,-0.0045 -0.002,-0.0059 -5.9e-4,-9e-4 -0.003,-0.0028 -0.004,-0.0039 v -0.002 c -7e-4,-0.0032 -8e-4,-0.0065 -0.002,-0.0098 -0.001,-0.0069 -0.003,-0.01641 -0.002,-0.01758 l -0.002,-0.002 c 0.002,0.0031 -0.0103,-0.01833 -0.006,-0.0098 -2.9e-4,-0.0012 3e-4,-0.0027 0,-0.0039 l -0.004,-0.002 c -3.2e-4,-0.0014 -0.002,-0.0025 -0.002,-0.0039 -0.005,-0.0071 -0.009,-0.01392 -0.006,-0.0059 v -0.002 h -0.002 c -2e-4,4.71e-4 -0.004,-0.0043 -0.006,-0.0078 -7e-4,-0.0013 -0.002,-0.0025 -0.002,-0.0039 v -0.002 l -0.002,-0.002 c -0.005,-0.01343 -0.008,-0.02734 -0.0117,-0.04102 0.001,0.0029 0.003,0.0054 0.006,0.0078 0.0185,0.02155 0.0923,0.06505 0.0723,0.04492 -0.10669,-0.107388 -0.0793,-0.07762 -0.0801,-0.07031 9e-5,-9.62e-4 1.1e-4,-0.002 0,-0.0039 -7e-5,2.58e-4 -0.002,-8.38e-4 -0.004,-0.002 -3.5e-4,-0.0014 -0.002,-0.0025 -0.002,-0.0039 -0.002,-0.006 -0.004,-0.01165 -0.006,-0.01758 -2.9e-4,-3.48e-4 -0.005,-0.0032 -0.006,-0.0039 l -0.002,-0.002 c -0.002,-0.0035 -0.0152,-0.0066 -0.0234,-0.01953 -0.006,-0.01962 -0.0107,-0.03902 -0.0156,-0.05859 0.005,0.01263 0.0106,0.02532 0.0176,0.03711 0.001,0.0016 0.002,0.0018 0.004,0.0039 -0.0133,-0.02618 -0.0259,-0.0417 -0.0117,-0.03125 0.009,0.0068 0.0115,0.01979 0.0176,0.0293 0.001,0.0017 7.5e-4,0.0041 0.002,0.0059 6.9e-4,0.0034 -7e-4,6.72e-4 0,0.0039 0.002,0.0023 0.002,0.0019 0.004,0.0039 0.001,0.0015 0.003,0.0022 0.004,0.0039 0.005,0.0045 0.0145,0.01663 0.0117,0.01172 -0.0202,-0.03671 -0.01,-0.01488 -0.0234,-0.03906 -0.001,-0.0023 -5.2e-4,-0.0017 -0.002,-0.0039 -0.0123,-0.02173 -0.0162,-0.02886 -0.0215,-0.03711 0.0281,0.01968 0.16391,0.09158 -0.0137,-0.01953 v -0.002 l -0.002,-0.002 c -10e-4,-0.0031 -8.5e-4,-0.0066 -0.002,-0.0098 h -0.002 v 0.002 c 0.002,0.0072 -0.001,0.01918 0.008,0.03516 -0.009,-0.01953 -0.0301,-0.0688 -0.0254,-0.06836 -0.002,-0.0043 -0.002,-0.0094 -0.004,-0.01367 -8e-4,-0.0026 -8e-4,-0.0052 -0.002,-0.0078 -5.4e-4,-0.0019 2.6e-4,0.0058 0,0.0059 -0.01,-0.02097 -0.0195,-0.04171 -0.0293,-0.0625 0.0111,0.01392 0.0202,0.02301 0.0293,0.0332 -0.002,-0.0059 -0.005,-0.01189 -0.008,-0.01758 -0.003,-0.01871 1.3e-4,0.0019 -0.0137,-0.05078 -0.002,-0.0097 7.3e-4,0.01251 0.004,0.0293 -0.007,-0.01247 -0.0171,-0.03008 -0.0332,-0.05664 0.008,0.0094 0.0215,0.02248 0.0176,0.01563 -0.0584,-0.09957 -0.0304,-0.04506 -0.0391,-0.05664 l -0.002,-0.002 c -5.7e-4,-7.14e-4 -0.004,-0.0036 -0.004,-0.0039 0.01,0.01556 0.004,0.0086 0.0117,0.02148 0.003,0.0055 0.002,0.0073 0.004,0.0098 0.002,0.0033 0.006,0.008 0.008,0.01172 0.0119,0.02631 9.8e-4,-6.89e-4 0.0234,0.05078 0.002,0.0044 -0.005,-0.0032 -0.01,-0.0098 -0.004,-0.02146 -0.003,-0.04656 -0.0215,-0.05273 -0.008,-0.0029 0.005,0.01705 0.008,0.02539 -0.0139,-0.02995 -0.0341,-0.07366 -0.0234,-0.05664 -7.7e-4,-6.82e-4 -0.006,-0.0105 -0.006,-0.0098 0.007,0.01826 0.0153,0.03918 0.0176,0.04492 0.0258,0.0341 -0.0131,-0.03493 -0.0215,-0.05078 0.002,0.0065 -0.0337,-0.05516 -0.0254,-0.03516 -0.008,-0.01906 -0.008,-0.02835 -0.01,-0.04297 0.01,0.01532 0.0244,0.02565 0.0371,0.03906 -0.1616,-0.225566 -0.0741,-0.106031 -0.0371,-0.04492 -0.001,-0.01066 -0.007,-0.02746 -0.008,-0.0332 -0.004,-0.0065 -0.008,-0.0073 -0.01,-0.01172 -0.0102,-0.02934 -0.0163,-0.05956 -0.0234,-0.08984 0.0185,0.03283 4.6e-4,-0.0068 -0.004,-0.01563 -0.001,-0.0046 -0.005,-0.009 -0.006,-0.01367 v -0.002 c -7.8e-4,-0.0039 -8e-4,-0.0078 -0.002,-0.01172 l 0.002,0.002 c 0.001,0.0046 0.005,0.009 0.006,0.01367 0.0245,0.03893 0.041,0.08555 0.0742,0.117188 0.0273,0.02599 0.11649,0.08452 0.0996,0.05078 -0.0424,-0.08507 -0.10929,-0.155814 -0.17579,-0.224609 -0.0133,-0.02372 -0.0294,-0.046 -0.0449,-0.06836 7.4e-4,0.0026 8.4e-4,0.0052 0.002,0.0078 6.2e-4,0.0013 8e-4,0.0026 0.002,0.0039 4.4e-4,0.0012 -4.4e-4,0.0027 0,0.0039 10e-4,0.002 7.9e-4,0.002 0.002,0.0039 0.001,0.0031 6.9e-4,0.0067 0.002,0.0098 0.002,0.0058 0.003,0.01189 0.006,0.01758 l 0.002,0.002 c 0.002,0.0027 0.002,0.0027 0.004,0.0059 0.001,-0.0017 -0.0123,-0.02666 -0.006,-0.01953 0.002,0.0027 0.003,0.0024 0.006,0.0059 0.005,0.0097 0.01,0.01942 0.0137,0.0293 0.002,0.005 -0.007,-0.0062 -0.0117,-0.01367 -0.002,0.0024 0.003,0.01493 0.008,0.02734 0.002,0.0038 0.002,0.0032 0.004,0.0078 v 0.002 c 4.3e-4,0.0014 0.002,0.0025 0.002,0.0039 9.4e-4,0.0018 8e-4,0.004 0.002,0.0059 h -0.002 c -0.001,-0.0021 -0.002,-0.0024 -0.002,-0.0039 -0.002,-0.0051 -0.002,-0.01055 -0.004,-0.01563 -0.006,-0.0117 -0.0147,-0.02262 -0.0195,-0.03516 -0.004,-0.01139 -0.007,-0.02576 -0.008,-0.03516 -0.002,-0.0065 -0.003,-0.01306 -0.006,-0.01953 0.001,0.0019 0.003,0.0039 0.004,0.0059 -0.004,-0.01498 -0.009,-0.03013 -0.0137,-0.04492 0.0138,0.01759 0.0342,0.02974 0.0527,0.04297 -0.0333,-0.03847 -0.0405,-0.03822 -0.0547,-0.04883 v -0.002 c -0.001,-9.77e-4 -0.005,-0.0031 -0.006,-0.0039 0.002,0.0025 0.002,0.0054 0.004,0.0078 l 0.002,0.002 c 10e-4,0.0087 0.003,0.01574 0.004,0.02344 6.6e-4,0.0013 8.2e-4,0.0026 0.002,0.0039 0.001,0.0031 1.6e-4,0.0042 0.002,0.0078 -0.009,-0.01226 -0.017,-0.02473 -0.0254,-0.03711 0.009,0.01533 0.0179,0.03038 0.0234,0.04687 0.004,0.0128 -0.0178,-0.02213 -0.0215,-0.03516 -0.001,-0.0038 -7.9e-4,-0.0079 -0.002,-0.01172 l -0.002,-0.002 c -0.002,-0.0077 -0.002,-0.01568 -0.004,-0.02344 -0.007,-0.0039 -0.0276,-0.03854 -0.0312,-0.04297 0.009,0.0086 0.0128,0.01128 0.0273,0.02539 v -0.002 c -0.001,-9.68e-4 -7.8e-4,-0.0029 -0.002,-0.0039 0.005,0.0054 -0.0201,-0.01898 -0.0273,-0.02539 l -0.002,-0.002 c -0.003,-0.0025 -0.005,-0.0034 -0.01,-0.0078 0.007,0.01041 -0.002,-0.004 0.006,0.0078 0.0113,0.01709 -0.0637,-0.05279 -0.0469,-0.04102 0.0145,0.01017 0.21037,0.170079 0.0137,0.0098 0.0345,0.03209 0.0135,0.01078 0.0273,0.02344 -0.005,-0.0075 0.001,0.001 -0.004,-0.0059 -0.003,-0.0027 -0.007,-0.005 -0.01,-0.0078 -0.0444,-0.06465 -0.0445,-0.06109 -0.0488,-0.0625 -0.007,-0.0014 -0.0501,-0.03845 -0.0508,-0.03906 -0.004,-0.0039 -0.0262,-0.0242 -0.0293,-0.03125 -0.0211,-0.01099 -0.0414,-0.02052 -0.0625,-0.03125 -0.34541,-0.174695 -0.28878,-0.468848 -0.043,-0.509765 z m 0.75977,2.248047 c 0.002,-0.004 0.006,-0.0065 0.01,-0.01367 0.004,-0.0065 0.005,-0.01305 0.008,-0.01953 1.3e-4,-0.0033 0.002,-0.0022 0.002,-0.0059 1e-5,-0.0035 1.2e-4,-0.0021 0,-0.0059 -0.001,7.3e-4 -0.003,0.0012 -0.004,0.002 0,0 0,0.002 0,0.002 0.007,-0.01058 0.025,-0.04298 -0.008,0.02734 -0.002,0.0049 -0.001,-0.0074 0,-0.01563 0,0 0,-0.002 0,-0.002 0,0 0,-0.002 0,-0.002 1.8e-4,-0.0014 0.002,-0.0025 0.002,-0.0039 -9.5e-4,9.99e-4 -0.003,0.0012 -0.004,0.002 0,0 -0.002,0 -0.002,0 -0.002,0.01183 -0.001,0.02351 -0.004,0.03516 z m -0.59375,0.671874 c 0.005,-5.71e-4 0.0105,-0.0012 0.0156,-0.002 0.002,-2.96e-4 0.004,-0.0015 0.006,-0.002 -0.002,-4.82e-4 -0.003,-0.0021 -0.004,-0.002 -0.005,3.81e-4 -0.0104,0.0011 -0.0156,0.002 -5.9e-4,0.0015 -9.5e-4,0.0024 -0.002,0.0039 z M 73.880859,27.431641 c 0.0081,-0.01579 -0.01931,0.02832 -0.0293,0.04297 -0.0017,0.0072 -0.0042,0.01426 -0.0059,0.02148 0.01114,-0.02187 0.02399,-0.0426 0.03516,-0.06445 z m 68.585941,0.01758 c -0.0368,0.01018 -0.0792,0.0311 -0.0859,0.05469 -0.005,0.01701 0.006,0.05107 0.006,0.07422 0.0483,-0.03605 0.10224,-0.06737 0.13476,-0.117187 0.0134,-0.02054 -0.0179,-0.0219 -0.0547,-0.01172 z m -66.601566,0.0332 c -0.125517,0.07854 -0.255359,0.151624 -0.367187,0.248047 -0.09195,0.07928 0.237275,-0.08542 0.318359,-0.175781 0.01944,-0.02166 0.03162,-0.04896 0.04883,-0.07227 z m 66.855466,0.154297 c 0.004,0.04495 -0.0146,0.119338 -0.0351,0.197265 0.0309,-0.02073 0.0617,-0.04123 0.0898,-0.06445 -0.0181,-0.04429 -0.0366,-0.08853 -0.0547,-0.132812 z m 0.0742,0.0098 c 0.0371,0.06949 0.0912,0.163422 0.0566,0.13086 -0.0259,-0.02436 -0.0213,-0.06807 -0.0332,-0.101563 -0.007,-0.01022 -0.0158,-0.01936 -0.0234,-0.0293 z m 0.0234,0.0293 c 0.0154,0.02152 0.0347,0.03961 0.0508,0.06055 -0.0228,-0.02337 -0.0411,-0.0496 -0.0566,-0.07813 0.004,0.0049 0.004,0.01177 0.006,0.01758 z m 0.13281,0.150391 c 0.005,0.01496 0.0105,0.02997 0.0156,0.04492 -0.006,-0.01694 -0.006,-0.02143 -0.0137,-0.04492 z m -67.128904,0.07227 c -0.02418,0.03151 -0.03339,0.04496 -0.05078,0.06836 -0.0013,0.02695 -0.0043,0.05404 -0.0098,0.08008 0.03741,-0.09003 -0.0049,0.0074 0.06055,-0.148437 z m -0.05078,0.06836 c 3.56e-4,-0.0073 0.0035,-0.01422 0.0039,-0.02148 -0.0025,0.0091 -0.0053,0.01821 -0.0078,0.02734 0.0014,-0.0019 0.0025,-0.0039 0.0039,-0.0059 z m -0.0039,0.0059 c -0.214026,0.288944 -0.147268,0.238878 -0.03125,0.111328 0.01028,-0.03708 0.02112,-0.0742 0.03125,-0.111328 z m -0.03125,0.111328 c -0.0079,0.02857 -0.01545,0.05739 -0.02344,0.08594 0.01335,-0.03287 0.01784,-0.04685 0.04297,-0.107422 -0.0049,0.0054 -0.01359,0.01496 -0.01953,0.02148 z m 66.699222,-0.11914 c 0.002,0.0025 0.004,0.0053 0.006,0.0078 h 0.002 c 0.0137,0.0046 0.014,0.0055 0.0254,0.0098 0.0155,0.0058 0.0464,0.01643 0.0352,0.01172 -0.0264,-0.01104 -0.0179,-0.0096 -0.0352,-0.01563 -0.0161,-0.0056 -0.0232,-0.01037 -0.0332,-0.01367 z m 0.0762,0.03125 c -0.003,-0.01045 -0.002,0.02068 0.002,0.0332 0.003,0.0016 0.003,0.0021 0.006,0.0039 -0.002,-0.01243 -0.005,-0.02483 -0.008,-0.03711 z m 0.008,0.03711 c 0.001,0.0059 0.003,0.01166 0.004,0.01758 0.0257,0.01068 0.0646,0.02403 0.0508,0.01367 -0.0447,-0.0336 -0.0288,-0.01506 -0.0547,-0.03125 z m -0.006,-0.0039 c -0.0148,-0.009 -0.0237,-0.01495 -0.0332,-0.01953 -0.003,-0.0016 -0.009,-0.0047 -0.0117,-0.0059 0.005,0.0058 0.0101,0.01206 0.0156,0.01758 h 0.002 c 0.007,0.0071 0.0118,0.0169 0.0195,0.02344 0.004,0.0034 0.008,5.79e-4 0.0156,0.0039 -0.002,-0.0062 -0.006,-0.01145 -0.008,-0.01758 z m 0.56641,0.111328 c 0.003,0.006 0.003,0.0061 0.006,0.01172 -4e-4,-0.0012 3.8e-4,-0.0027 0,-0.0039 -0.002,-0.0031 -0.007,-0.01077 -0.006,-0.0078 z m 0,0.01563 c 7.9e-4,0.0038 8e-4,0.0061 0.002,0.0098 0.009,0.0099 0.0155,0.02847 0.0215,0.03711 -0.001,-0.0067 -0.004,-0.01289 -0.006,-0.01953 -6.7e-4,-10e-4 -8.4e-4,-0.0028 -0.002,-0.0039 -7.3e-4,-0.0011 -8e-4,-0.0027 -0.002,-0.0039 -0.004,-0.0069 -0.007,-0.0094 -0.0137,-0.01953 z m -67.501955,0.365234 c -0.01255,0.04834 -0.02711,0.096 -0.03906,0.144532 0.0095,-0.01665 0.01703,-0.02376 0.02734,-0.04102 0.0045,-0.03421 0.0086,-0.06891 0.01172,-0.103516 z m 67.712895,0.109375 c 0.002,0.0038 0.004,0.0078 0.006,0.01172 -2.5e-4,-0.0012 2.2e-4,-0.0027 0,-0.0039 0.001,0.0011 -0.003,-0.0045 -0.002,-0.0039 -6.2e-4,-0.0017 -0.003,-0.0023 -0.004,-0.0039 z m -0.38282,0.324219 c 0,0 0.002,0.002 0.002,0.002 2.5e-4,0.0026 -6.6e-4,0.0053 0,0.0078 -0.001,-0.0031 -7.9e-4,-0.0067 -0.002,-0.0098 z m 0.54883,0.09766 c 0.003,0.0065 0.006,0.01321 0.01,0.01953 -7.7e-4,-0.0032 -8.4e-4,-0.0066 -0.002,-0.0098 -0.001,-0.004 -0.01,-0.01331 -0.008,-0.0098 z m 0,0.06445 c 0.005,0.0091 0.01,0.01865 0.0156,0.02734 -0.004,-0.01434 0.001,5.38e-4 -0.004,-0.01563 -0.002,-0.0056 -0.0146,-0.01676 -0.0117,-0.01172 z M 75.375,29.306641 c -0.0066,0.02407 -0.01244,0.04834 -0.01953,0.07227 0.0053,-0.01639 0.01537,-0.03807 0.01758,-0.04883 0.0017,-0.0082 5.49e-4,-0.01453 0.002,-0.02344 z m 67.69922,0.154297 c -0.002,0.0077 -0.009,0.01819 -0.0137,0.02734 0.002,4.13e-4 0.004,-1.64e-4 0.006,0 0.003,-0.009 0.002,-0.01908 0.008,-0.02734 z m 0.4375,0.18164 c -0.01,0.0311 -0.006,0.02651 -0.0117,0.04687 0.003,-0.01156 0.0102,-0.02141 0.0117,-0.0332 5.5e-4,-0.0043 0.002,-0.01785 0,-0.01367 z m -0.67969,0.208984 c -0.0106,0.01538 -0.0216,0.03027 -0.0332,0.04492 -0.002,0.0016 -0.005,0.0043 -0.008,0.0059 -0.0182,0.01186 0.0533,-0.06868 0.041,-0.05078 z m 0.60547,0.002 c -0.0109,0.01613 -0.0235,0.03008 -0.0332,0.04687 -0.005,0.0095 0.01,-0.0098 0.0215,-0.02344 -0.0129,0.02717 -9.9e-4,-0.0014 -0.0332,0.07031 -0.004,0.0082 0.0115,-0.01343 0.0156,-0.02148 0.01,-0.01932 0.017,-0.04057 0.0274,-0.05859 h -0.002 c 0.002,-0.0042 0.004,-0.0107 0.006,-0.01367 z m -0.60938,0.03711 c -0.001,0.0013 -0.003,0.0026 -0.004,0.0039 -0.003,0.0054 -0.003,0.0088 -0.004,0.01172 0.004,-0.0062 0.005,-0.01007 0.008,-0.01563 z m -67.429682,0.05469 c -6e-6,0.002 0,0.0039 0,0.0059 0.0021,0.0036 0.002,0.0024 0.0039,0.0059 -0.0023,-0.0065 -0.0029,-0.0083 -0.0039,-0.01172 z m 0,0.01563 c -6e-6,0.002 0,0.0039 0,0.0059 0.0029,0.0074 -0.0029,-0.0012 0.01953,0.04297 0.0047,0.0093 -0.0061,-0.01774 -0.0098,-0.0293 -0.0037,-0.009 -0.0062,-0.0129 -0.0098,-0.01953 z m 67.962892,0.04687 c -0.006,0.01231 -0.003,0.0036 -0.008,0.01367 -0.0155,0.03342 -0.0171,0.03285 -0.0234,0.04687 0.004,-0.0067 0.009,-0.01297 0.0137,-0.01953 0.006,-0.0139 0.0113,-0.02733 0.0176,-0.04102 z m -0.008,0.01367 c -0.004,0.0025 -0.008,0.0053 -0.0117,0.0078 -0.001,0.0019 -0.003,0.0039 -0.004,0.0059 0.005,-0.0047 0.0213,-0.01728 0.0156,-0.01367 z m -0.10352,0.07813 c -0.0116,0.0255 -0.0198,0.05174 -0.0293,0.07813 9.8e-4,-3.97e-4 0.003,-0.0016 0.004,-0.002 0.0109,-0.032 0.0365,-0.100776 0.0254,-0.07617 z m -0.0254,0.07617 c -8.4e-4,0.0025 -8e-4,0.0039 -0.002,0.0059 -0.002,0.0025 -0.003,0.0049 -0.006,0.0078 0.004,-0.0019 0.006,-0.0061 0.01,-0.0078 0.005,-0.0024 -0.0112,0.0099 -0.0117,0.01367 0.0144,-0.0087 0.0297,-0.017 0.041,-0.0293 0.003,-0.0035 0.004,-0.0058 0.008,-0.01172 -0.005,0.0014 -0.0295,0.01777 -0.0391,0.02148 z m -0.008,0.01367 c 0.001,-0.0039 0.003,-0.0078 0.004,-0.01172 -0.025,0.0101 -0.0277,0.0026 -0.0976,0.05273 -0.0187,0.01339 0.0365,-0.0067 0.0664,-0.01953 0.009,-0.0067 0.0172,-0.01611 0.0274,-0.02148 z m -0.59571,-0.08203 c -0.005,0.0033 -0.009,0.0043 -0.0137,0.0078 -0.008,0.0222 -0.014,0.0442 -0.0215,0.06641 0.0154,-0.05745 0.0307,-0.05894 0.0352,-0.07422 z m 0.0547,0.0059 c -0.003,0.0021 -0.004,0.0036 -0.006,0.0059 0.002,-0.0019 0.004,-0.0039 0.006,-0.0059 z m -67.220702,0.04102 c 0.02616,0.130311 0.03638,0.212533 0.0293,0.08203 -0.01,-0.02728 -0.02096,-0.05396 -0.0293,-0.08203 z m 67.710942,0.07227 c -0.0295,0.01684 -0.0662,0.03879 -0.0742,0.04297 -0.001,0.0039 -0.003,0.0079 -0.004,0.01172 0.006,-0.0025 0.008,-0.0035 0.0137,-0.0059 0.0203,-0.01563 0.0427,-0.02844 0.0625,-0.04492 0.001,-8.39e-4 7.8e-4,-0.0031 0.002,-0.0039 z m -0.0781,0.05469 c -0.002,7.37e-4 -0.002,0.0012 -0.004,0.002 -0.004,0.01036 -0.01,0.02446 -0.0117,0.0293 0.003,-0.0021 0.005,-0.0059 0.008,-0.0078 0.003,-0.0073 0.005,-0.01571 0.008,-0.02344 z m 0.004,-0.01172 c 0.004,-0.0137 0.009,-0.02754 0.0137,-0.04102 -0.0151,0.03922 -0.0108,0.02364 -0.0176,0.04297 3.6e-4,-1.86e-4 0.004,-0.0017 0.004,-0.002 z m -67.537112,-0.03125 c 0.01558,0.04267 0.02555,0.07008 0.0625,0.201172 0.01837,0.06519 -0.02009,-0.138291 -0.05664,-0.195312 -0.0015,-0.0024 -0.0043,-0.0035 -0.0059,-0.0059 z m 67.443362,0.142578 c -0.003,9.92e-4 -0.0113,0.0046 -0.0156,0.0059 0.004,-0.0011 0.008,-7.76e-4 0.0117,-0.002 0.001,-0.0013 0.003,-0.0026 0.004,-0.0039 z m -0.0352,0.01172 c -0.0201,0.006 -0.0109,0.0034 -0.0527,0.01758 0.0174,-0.0052 0.0354,-0.01006 0.0527,-0.01563 z m -0.0137,0.0625 c -0.006,0.007 -0.002,-4.83e-4 -0.01,0.0078 -0.002,0.0022 0.007,-0.0039 0.008,-0.0039 l 0.002,-0.002 z m -0.0312,0.03125 c -0.006,0.0035 -0.01,0.0065 -0.0156,0.0098 v 0.002 c 0.006,-0.0043 0.0103,-0.0071 0.0156,-0.01172 z m -0.0195,0.01172 c -0.0547,0.03099 -0.0577,0.04179 -0.0469,0.03906 0.0133,-0.0079 0.0299,-0.02263 0.0469,-0.03516 4.4e-4,-0.0019 -4.3e-4,-0.002 0,-0.0039 z m -0.51563,0.01563 -0.002,0.002 c -0.002,0.0016 -0.002,0.0042 -0.004,0.0059 -0.005,0.0022 -0.0188,0.01012 -0.0156,0.0059 -0.005,0.0014 -0.0105,0.0026 -0.0156,0.0039 0.004,-0.0022 0.006,-0.0056 0.01,-0.0078 -0.006,0.0023 -0.0129,0.0059 -0.0195,0.0078 l -0.002,0.002 c -0.001,2.72e-4 -0.002,0.0017 -0.004,0.002 h -0.002 c -0.002,8.42e-4 -0.005,0.0014 -0.008,0.002 -0.002,8.09e-4 -0.005,0.0011 -0.008,0.002 -0.005,0.0016 -0.0105,0.0023 -0.0156,0.0039 h -0.002 v 0.002 c -10e-4,3.11e-4 -0.003,0.0017 -0.004,0.002 h -0.002 -0.002 c -9.5e-4,4.73e-4 -0.003,0.0014 -0.004,0.002 -0.001,5.54e-4 -0.006,0.0013 -0.008,0.002 -0.002,0.0011 -0.002,0.0024 -0.006,0.0039 -0.002,4.54e-4 -0.004,-7.53e-4 -0.006,0 h -0.002 l -0.002,0.002 c -0.004,0.0026 -0.008,0.0051 -0.0117,0.0078 -0.004,0.0019 -0.009,0.0026 -0.0137,0.0039 v 0.002 c -0.001,7.11e-4 -0.003,0.0012 -0.004,0.002 v -0.002 c -2.8e-4,2.58e-4 -0.003,-6.68e-4 -0.004,0 v 0.002 l -0.002,0.002 h -0.002 c -9.8e-4,0.001 9.3e-4,0.0029 0,0.0039 -9.2e-4,9.78e-4 -0.003,-7.74e-4 -0.004,0 v 0.002 c -7.7e-4,7.69e-4 -0.005,0.0012 -0.006,0.002 -0.002,0.0015 -0.005,0.0025 -0.008,0.0039 v 0.002 c -0.005,0.0037 -0.0114,0.0047 -0.0176,0.0059 3.8e-4,0.0014 -0.002,0.0025 -0.002,0.0039 0.0231,0.07047 0.0943,0.172027 0.16211,0.222656 0.003,0.0022 0.007,0.0058 0.01,0.0078 0.0101,-4.56e-4 0.0543,-0.0017 0.084,-0.02539 0.0128,4.2e-5 -0.0218,0.01168 -0.0234,0.01563 0.0143,-0.0035 0.041,-0.01269 0.0488,-0.01367 -0.0211,-0.09377 -0.0482,-0.193755 -0.0586,-0.289063 -0.001,-8e-6 -0.003,1.7e-5 -0.004,0 -0.0115,-4.03e-4 -0.002,-0.0017 -0.0137,0 -0.004,4.1e-5 -0.005,-8.13e-4 -0.008,-0.002 z m -0.0117,0.002 c -0.003,0.0013 -0.005,0.0026 -0.008,0.0039 0.002,-3.72e-4 0.003,5.28e-4 0.004,0 0.002,-6.74e-4 0.002,-0.0031 0.004,-0.0039 z m -0.49609,0.02344 c -0.009,0.0061 -0.0163,0.0071 -0.0234,0.01367 -0.0255,0.02353 -0.0355,0.05973 -0.0527,0.08984 0.0542,-0.07413 0.0614,-0.08409 0.0762,-0.103516 z m -65.861328,0.0293 c 0.02161,0.0092 0.0441,0.01605 0.06641,0.02344 -0.0039,-0.0026 -0.0078,-0.0051 -0.01172,-0.0078 -0.02762,-0.01 -0.07199,-0.02301 -0.05469,-0.01563 z m 65.580078,0.08398 c -0.004,0.0028 -0.008,0.0046 -0.0117,0.0078 -0.0149,0.01386 -0.0177,0.03229 -0.0273,0.05469 h 0.002 c 0.0126,-0.02066 0.025,-0.04146 0.0371,-0.0625 z m 1.19531,0.0059 c -0.004,0.0021 -0.007,0.0023 -0.0117,0.0059 -0.003,0.0027 -0.005,0.0049 -0.008,0.0078 -0.005,0.0063 0.008,-0.0054 0.0195,-0.01367 z m -1.33203,0.04102 c -0.002,0.0021 -0.005,0.0037 -0.008,0.0059 -0.008,0.0042 -0.009,-8.3e-4 -0.0215,0.0059 -0.006,0.0034 -0.016,0.01118 -0.0176,0.01367 5.7e-4,-1.66e-4 0.003,4.85e-4 0.006,0 -0.0103,0.0046 -8e-5,4.35e-4 -0.0117,0.0059 -0.002,7.56e-4 0.004,-0.0033 0.004,-0.0039 -0.0104,0.0023 -0.0337,0.0044 -0.0625,0.01758 -0.0206,0.01461 -0.0407,0.03025 -0.0625,0.04297 -0.0159,0.0093 0.0274,-0.02467 0.041,-0.03711 0.004,-0.0018 0.006,-1.07e-4 0.01,-0.002 h 0.002 c -5.8e-4,-4e-5 0.004,-0.0032 0.004,-0.0039 0.002,-2.3e-4 0.004,-1.73e-4 0.008,-0.002 0.0115,-0.0082 0.0238,-0.01513 0.0352,-0.02344 0.006,-0.0036 0.0277,-0.01691 0.0215,-0.01172 -0.005,0.0042 -0.0105,0.0077 -0.0156,0.01172 0.0226,-0.0071 0.0454,-0.01356 0.0684,-0.01953 z m -0.0898,0.01953 c -0.005,0.0035 -0.0114,0.0078 -0.0176,0.01172 0.006,-0.0043 0.007,-0.0081 0.0117,-0.0098 0.002,-6.67e-4 0.004,-0.0013 0.006,-0.002 z m -64.435549,0.261719 c 0.01565,-0.003 0.02946,0.0071 0.04492,0.0059 -0.0027,-0.0011 -0.0051,-0.0028 -0.0078,-0.0039 -0.0074,-7.83e-4 -0.04919,6.28e-4 -0.03711,-0.002 z m 0.08203,0.0059 c 0.02184,0.0053 0.01354,0.0018 0.03516,0.0078 0.02168,0.0019 0.04326,0.003 0.06445,0.0078 -0.0099,-0.0038 -0.01891,-0.0098 -0.0293,-0.01172 -0.02296,-0.0042 -0.03385,-0.0035 -0.07031,-0.0039 z m 0.375,0.164063 c -0.002,0.0011 -0.0038,0.0027 -0.0059,0.0039 0.0033,-8.41e-4 0.0065,-0.0012 0.0098,-0.002 -0.0014,-4.68e-4 -0.0025,-0.0015 -0.0039,-0.002 z m -1.033203,0.501953 c -0.04075,-0.04059 0.06648,0.09361 0.09961,0.140625 0.0048,0.0047 0.0081,0.01001 0.01367,0.01367 0.01596,0.01035 0.03272,0.01909 0.04883,0.0293 -0.01951,-0.03063 -0.05692,-0.07883 -0.162109,-0.183594 z m 0.236328,0.03711 c 0.01076,0.03754 0.07039,0.150485 0.0918,0.167969 0.01429,0.01167 0.03195,0.01844 0.04687,0.0293 -0.06585,-0.100147 -0.145985,-0.222774 -0.138672,-0.197266 z m -0.328125,0.05859 c 0.02341,0.06974 0.03494,0.122914 0.125,0.378906 0.03418,0.09716 -0.0056,-0.07325 -0.0625,-0.234375 -0.01941,-0.05493 -0.0379,-0.107451 -0.06055,-0.144531 z m 0.0625,0.144531 c 0.100287,0.04359 0.07716,0.03303 0.144531,0.05859 -0.0032,-0.0079 -0.0061,-0.01585 -0.0098,-0.02344 -0.07109,-0.02198 -0.177639,-0.05379 -0.134766,-0.03516 z m 0.171875,0.04492 c 0.0069,0.01272 0.01035,0.01752 0.01758,0.03125 0.0341,0.0124 0.05784,0.02424 0.08398,0.0332 -0.0087,-0.0099 -0.01613,-0.02236 -0.02539,-0.03125 0.177179,0.109123 -0.01344,-0.0099 -0.07422,-0.0332 z m 1.382812,0.07422 c -0.0909,0.0275 -0.173251,0.07709 -0.257812,0.121093 0.05852,-0.0082 0.08665,-0.011 0.126953,-0.02734 0.04984,-0.02021 0.182334,-0.109315 0.130859,-0.09375 z m -3.945312,0.02148 c 0.0094,0.01183 0.01562,0.02828 0.02539,0.03906 0.09631,0.106339 0.482515,0.307183 0.371093,0.216796 -0.122256,-0.09917 -0.261659,-0.173971 -0.396484,-0.255859 z m 3.126953,0.0293 c 0.03785,0.01749 0.08197,0.02031 0.123047,0.0293 0.0063,0.0014 0.02553,-4.87e-4 0.01953,0.002 -0.0098,0.0037 -0.02115,0.0067 -0.03125,0.0039 -0.0375,-0.01034 -0.0741,-0.02386 -0.111328,-0.03516 z m -0.0059,0.265625 c 0.0571,0.07945 0.07653,0.104793 0.257812,0.351563 -0.121783,-0.206323 -0.100118,-0.156228 -0.121094,-0.191407 0.05616,0.02385 0.114657,0.04128 0.171875,0.0625 -0.0047,-0.0069 -0.0077,-0.01436 -0.01172,-0.02148 -0.07108,-0.02512 -0.182926,-0.05589 -0.160157,-0.04297 -0.0236,-0.03939 -0.103577,-0.16247 -0.136718,-0.158203 z m -2.916016,0.03516 c 0.0652,0.05614 0.148965,0.116188 0.236328,0.171875 -0.0029,-0.0088 -0.0048,-0.01609 -0.0078,-0.02539 -0.09438,-0.06259 -0.187108,-0.125475 -0.228516,-0.146485 z m 0.238281,0.154297 c 0.0038,0.01046 0.007,0.01457 0.01172,0.02734 0.126918,0.08006 0.222128,0.133398 0.144531,0.07617 -0.07903,-0.05827 -0.101452,-0.06689 -0.15625,-0.103516 z m 3.058594,0.05469 c 0.0017,0.0028 0.0042,0.005 0.0059,0.0078 0.0019,6.96e-4 0.0039,0.0013 0.0059,0.002 -0.0011,-0.002 -0.0029,-0.0038 -0.0039,-0.0059 -0.0025,-0.0016 -0.0053,-0.0024 -0.0078,-0.0039 z m 0.132812,0.117187 c 0.0032,0.0057 0.0055,0.0089 0.0078,0.01367 0.04238,0.0426 0.08177,0.08736 0.126953,0.126953 0.04901,0.04295 -0.06027,-0.06616 -0.134766,-0.140625 z m -3.11914,0.0098 c 0.0038,0.0087 0.0059,0.01086 0.0098,0.01953 0.01088,0.0093 0.01995,0.01606 0.03711,0.03125 0.06229,0.0521 0.140393,0.118617 0.109375,0.08398 -0.04598,-0.05131 -0.104701,-0.08902 -0.15625,-0.134765 z m 0.03906,0.07227 c 0.02746,0.02589 0.05489,0.0519 0.08203,0.07813 -0.01546,-0.01574 -0.03119,-0.03135 -0.04687,-0.04687 -0.0053,-0.0051 -0.01481,-0.01696 -0.02148,-0.02344 -0.0012,-7.83e-4 -0.0027,-0.0012 -0.0039,-0.002 -0.0032,-0.0021 -0.0066,-0.0038 -0.0098,-0.0059 z m 0.115235,0.0293 c -0.02887,-0.04781 0.03839,0.118317 0.07813,0.148438 l 0.0098,0.0078 c -0.02677,-0.05376 -0.057,-0.105098 -0.08789,-0.15625 z m 0.109375,0.171875 0.398437,0.304688 c 0.07225,0.02684 0.174102,0.06905 0.138672,0.04102 -0.281064,-0.222507 -0.4282,-0.297137 -0.537109,-0.345703 z m 0.324218,0.341797 c -0.04756,-0.04744 0.07942,0.109634 0.132813,0.150391 0.0044,0.0034 0.01095,0.0048 0.01563,0.0078 -0.04988,-0.05225 -0.09732,-0.107211 -0.148438,-0.158203 z m 1.265626,0.847656 c 0.003,0.0056 0.0045,0.01213 0.0078,0.01758 0.04197,0.06922 0.186532,0.262834 0.148438,0.191406 -0.02785,-0.05221 -0.09605,-0.133622 -0.15625,-0.208985 z M 64.613281,50.28125 c 0.287129,0.0371 0.573728,0.0459 0.861328,0.03516 0.344099,-0.0078 0.687091,-0.0019 1.03125,-0.002 0.249306,-8.44e-4 0.49874,-1.18e-4 0.748047,0 0.363324,6.9e-5 0.72652,0 1.089844,0 0.265602,1.4e-5 0.531272,10e-7 0.796875,0 0.280108,-2e-6 0.559736,0 0.839844,0 h 0.792969 1.382812 0.865234 1.117188 1.576172 0.984375 1.169922 1.291015 1.203125 1.517578 1.121094 1.253906 c 0.399706,-0.02538 0.788643,0.06652 1.175782,0.15625 0.448086,-0.03766 0.89843,-0.02681 1.347656,-0.02344 0.498698,-0.0019 0.99739,-0.0044 1.496094,-0.0039 0.464522,6.55e-4 0.930008,7.4e-5 1.394531,0 0.893716,2.7e-5 1.785971,1.2e-5 2.679687,0 0.853299,-0.03801 1.697541,0.120416 2.546875,0.169922 0.69424,-0.05435 1.389951,-0.04954 2.085938,-0.04297 0.302939,0.04947 0.605263,0.09897 0.908203,0.148438 0.09351,0.02349 0.186647,0.05169 0.28125,0.07031 0.02348,0.0046 -0.04351,-0.02037 -0.06641,-0.02734 -0.03319,-0.0101 -0.133352,-0.0095 -0.101563,-0.02344 0.05638,-0.02465 0.12412,-0.01002 0.185547,-0.01367 0.109968,-0.0065 0.220065,-0.0099 0.330078,-0.01563 0.724083,-0.02547 1.447506,-0.0015 2.171879,-0.002 0.49334,-0.0031 0.98707,-0.0025 1.48047,-0.002 0.61293,2.67e-4 1.22495,-3e-6 1.83789,0 0.35885,6.4e-5 0.71927,7e-6 1.07812,0 0.54979,-5e-6 1.09866,0 1.64844,0 h 1.15429 1.82618 1.23828 1.4414 1.23633 1.70508 1.0957 1.28321 1.14648 1.54492 0.78907 0.78711 0.9375 1.0625 0.74804 0.7793 0.7832 c 0.84116,0.0029 2.13682,-0.08743 2.52149,0.867188 0.49044,1.2171 -0.0428,2.623528 -0.0645,3.935546 l -0.69922,0.34961 c -0.20696,0.274761 -0.55793,0.443101 -1.20117,0.664062 -0.19374,0.155232 -0.31006,0.195605 -0.53906,0.265625 -0.0135,0.0086 -0.024,0.01537 -0.0371,0.02344 0.0433,-0.01385 0.11136,-0.0442 0.14453,-0.05273 0.13857,-0.03567 -0.23972,0.160409 -0.375,0.207032 -0.0438,0.0151 -0.0905,0.02159 -0.13476,0.03516 -0.0372,0.01754 -0.0738,0.03578 -0.11133,0.05273 -0.24144,0.201051 -0.53418,0.348008 -1.13672,0.53125 -0.0832,0.02529 -0.17171,0.02087 -0.25781,0.0293 -0.2147,0.08334 -0.40104,0.143224 -0.58203,0.189453 -0.0526,0.01776 -0.0655,0.0237 -0.0977,0.03711 -0.009,0.0036 -0.0157,0.0122 -0.0234,0.01758 l -0.48633,0.171875 c 0.4806,-0.172663 -0.006,0.002 -0.29687,0.107422 l -0.12695,0.0918 c -0.005,0.0048 -0.0112,0.01064 -0.0176,0.01367 -0.20563,0.09464 -0.40243,0.213879 -0.61914,0.279296 -0.21092,0.06367 -0.41181,0.09928 -0.61133,0.125 -0.0775,0.04293 -0.21431,0.05573 -0.31641,0.08398 -0.0783,0.04273 -0.15332,0.09312 -0.23828,0.11914 -0.34378,0.105279 -0.70615,0.140251 -1.05469,0.228516 -0.0651,0.01782 0.19204,-0.03575 0.28907,-0.03125 0.05,0.0023 -0.0955,0.0288 -0.14454,0.03906 -0.14078,0.02951 -0.16771,0.03077 -0.24218,0.04492 -0.0587,0.03347 -0.12029,0.06199 -0.17774,0.09766 -0.0962,0.05971 0.42294,-0.16114 0.32227,-0.109375 -0.41207,0.211875 -0.68837,0.228601 -1.1582,0.328125 -0.001,2.68e-4 -0.003,-2.66e-4 -0.004,0 -0.0251,0.0058 -0.0621,0.01525 -0.0801,0.01953 -0.13446,0.03206 -0.2715,0.05338 -0.4082,0.07422 -0.1176,0.0588 -0.26469,0.142391 -0.32422,0.164062 -0.18012,0.06557 -0.37135,0.09798 -0.5625,0.123047 -0.004,0.0014 -0.006,0.0045 -0.01,0.0059 -0.0439,0.01724 -0.13754,0.03341 -0.20312,0.05273 0.007,0.0273 -0.62101,0.323376 -0.58789,0.291015 0.12202,0.02283 0.1604,0.01121 -0.13477,0.03906 -0.007,0.0037 -0.0145,0.0061 -0.0215,0.0098 -0.12321,0.128088 -0.76691,0.414386 -1.01953,0.560547 -0.0225,0.01299 -0.0763,0.02415 -0.10547,0.03711 0.11524,5.81e-4 0.23047,0.0029 0.3457,0.002 0.11064,-3.6e-5 0.22139,-1.34e-4 0.33203,0 7e-5,0.0017 -7e-5,0.0022 0,0.0039 0.22676,0.01559 0.16027,0.156228 0.0723,0.732422 0.0232,0.158026 0.0342,0.274343 0.0527,0.369141 h 0.0898 0.83789 c 0.45922,-1.15e-4 0.46825,-0.0061 0.67382,1.126953 0.0288,0.158691 -0.22907,0.23388 -0.36523,0.320312 -0.1273,0.0808 -0.30579,0.07726 -0.44922,0.08594 -0.035,0.09585 -0.13265,-0.05047 -0.18359,-0.01563 -0.0111,0.0076 0.0246,0.01083 0.0371,0.01563 -0.0595,0.0082 -0.12002,0.01661 -0.17969,0.02344 -0.24105,0.0276 -0.11051,9.12e-4 -0.24609,0.0332 -0.053,0.0077 -0.10478,0.0203 -0.15821,0.02344 -0.12705,0.0074 -0.25361,0.0066 -0.38086,0.0098 -0.0387,0.267313 -0.29304,0.50569 -0.47851,0.716796 -0.0691,0.07861 -0.20427,0.04277 -0.30664,0.06445 -0.0221,0.0047 -0.0444,0.0088 -0.0664,0.01367 -0.10546,0.02359 -0.21179,0.02944 -0.31836,0.03125 0.0114,0.151007 0.012,0.135531 0.0332,0.347657 0.009,0.08521 -0.16296,0.05477 -0.24414,0.08203 -0.17523,0.04733 -0.35152,0.03152 -0.52929,0.02344 -0.0705,-0.0032 -0.14232,-0.0019 -0.21289,-0.002 -0.002,1.4e-5 -0.31035,0.0017 -0.31446,0.002 -0.0351,0.0026 -0.0707,0.01351 -0.10546,0.01953 -0.005,3.48e-4 -0.009,0.0016 -0.0137,0.002 0.0155,0.0099 0.0234,0.02268 0.0371,0.0332 0.088,-0.0042 0.19754,-0.01258 0.24414,-0.01172 0.20566,0.0038 0.40997,0.02776 0.61524,0.04102 0.31141,0.084 0.7912,-0.0365 0.93554,0.251953 0.64233,1.283594 1.57174,2.719885 1.25196,4.11914 -0.18382,0.804295 -2.00669,1.409988 -2.99219,1.173829 0.18676,-0.09057 0.0924,-0.03534 -0.21875,0.0293 -0.73525,0.152719 -1.34903,0.232537 -2.10352,0.253906 -0.17235,0.0049 -0.34326,-0.0091 -0.51562,-0.01367 -0.87698,0.01148 -1.75259,0.04844 -2.62695,0.09766 0.0215,0.728514 0.12813,1.798313 0.59961,3.478516 0.0424,-0.01666 0.0846,-0.03392 0.12695,-0.05078 0.0461,-0.01838 -0.10369,0.139563 -0.11719,0.0918 -0.004,-0.01564 -0.005,-0.02546 -0.01,-0.04102 -0.47501,0.186515 -0.95516,0.362135 -1.4043,0.603515 -0.10915,0.05866 0.0179,0.02835 0.19726,-0.02539 0.27718,-0.130063 0.56103,-0.244782 0.8418,-0.367188 0.10538,0.02067 -0.20822,0.153624 -0.52344,0.265625 0.10228,-0.02106 -0.1876,0.09161 -0.28515,0.128906 -0.63831,0.244062 -1.28474,0.440794 -1.97461,0.455079 -0.24006,0.02156 -0.48048,0.04488 -0.72071,0.06445 -0.002,3.81e-4 -0.004,-3.82e-4 -0.006,0 -0.0274,0.0055 -0.0545,0.01099 -0.082,0.01563 -0.30463,0.05121 -0.6082,0.107164 -0.91406,0.15039 -0.052,0.0073 -0.10572,0.0016 -0.1582,0.002 -0.62236,-0.0014 -1.24497,-0.02254 -1.86719,-0.0078 -0.24452,0.01479 -0.45896,0.0279 -0.67578,0.02734 0.026,0.229695 0.0457,0.460573 0.0762,0.689453 -0.0884,0.01806 -0.17748,0.03496 -0.26562,0.05469 1.23006,1.49478 0.30957,3.972413 -3.177738,4.361328 -0.255493,0.02849 -0.805283,0.09515 -1.089843,0.109376 -0.0012,4.6e-4 -0.0027,-4.58e-4 -0.0039,0 -0.40858,0.157308 -0.80625,0.142909 -1.207031,0.11914 -0.01694,0.007 -0.03173,0.01869 -0.04883,0.02539 -0.434636,0.170223 -0.829651,0.134472 -1.25,0.09961 -0.0165,0.0066 -0.0302,0.01916 -0.04687,0.02539 -0.506442,0.189082 -1.036859,0.138546 -1.552734,0.08203 0.0029,0.01094 0.04084,0.0022 0.03125,0.0078 -0.06249,0.03665 -0.51404,0.0096 -0.580078,0.0098 -0.376723,-0.0031 -0.752176,-0.0025 -1.128907,-0.002 -0.251378,2.62e-4 -0.502528,-2e-6 -0.753906,0 -0.26294,4.7e-5 -0.526122,8e-6 -0.789062,0 -0.260807,-4e-6 -0.5224,0 -0.783203,0 h -0.78125 -0.783204 -0.109375 c -0.340343,0.101233 -0.690128,0.146929 -1.0625,0.164063 -0.227962,0.01049 -0.462578,-0.03825 -0.691406,-0.04492 -0.253961,0.01307 -0.507477,0.01373 -0.761719,0.01172 -0.302518,-0.0027 -0.605679,-3.09e-4 -0.908203,0 -0.310673,-1.08e-4 -0.620968,-3e-5 -0.93164,0 -0.247761,4.1e-5 -0.496381,4e-6 -0.744141,0 h -0.785156 -0.783203 -0.78125 -0.783203 -0.78125 c -0.166664,-0.02951 -0.357115,0.03921 -0.521485,0 -0.291079,-0.06943 -0.379315,-0.104971 -0.585937,-0.164062 -0.04339,-0.0073 -0.02987,-0.0031 -0.07031,-0.0098 0.01373,2.92e-4 0.02727,0.0017 0.04102,0.002 -0.687083,-0.197936 -1.029992,-0.331601 -0.576172,-0.09961 0.06548,0.03226 0.135286,0.03825 0.203125,0.05273 -0.205457,-0.02825 -0.403578,-0.0577 -0.511719,-0.06836 -0.0027,0.0026 -0.01753,0.007 -0.02539,0.0039 -0.01094,-0.0043 -0.02226,-0.0075 -0.0332,-0.01172 -0.175118,-0.01692 -0.302869,-0.03799 -0.443359,-0.08203 0.136879,0.03626 0.274301,0.05593 0.427734,0.07422 -0.750193,-0.291751 -1.508564,-0.564282 -2.24414,-0.890625 0.233384,0.209755 0.468154,0.419804 0.740234,0.572266 0.244815,0.137183 0.545428,0.131977 0.81836,0.197265 0.01559,0.0037 0.06271,0.0072 0.04687,0.0098 -0.619826,0.103058 -1.282037,-0.111689 -1.839843,-0.38086 0.409661,0.168003 0.488182,0.187157 0.208984,0.0293 -0.01062,-0.0033 -0.02824,-0.0099 -0.03906,-0.01367 -0.200487,-0.02775 -0.401179,-0.05355 -0.601563,-0.08203 l 0.246094,0.05273 c -0.05096,9e-4 -0.09977,0.0022 -0.152344,-0.0039 -0.04418,-0.0052 -0.387337,-0.09137 -0.185547,-0.0625 0.03063,0.0044 0.06117,0.0093 0.0918,0.01367 l -1.371094,-0.298828 c 0.264305,0.09504 0.51103,0.187125 0.341797,0.171875 -0.392006,-0.03532 -0.713011,-0.19207 -0.996093,-0.408203 -0.09965,-0.01959 -0.199183,-0.03901 -0.298829,-0.05859 -0.02127,-0.01144 -0.04146,-0.02513 -0.0625,-0.03711 -0.152843,-0.0208 -0.306267,-0.04054 -0.449218,-0.0957 -0.09308,-0.03592 -0.17758,-0.08988 -0.263672,-0.140625 -0.07972,-0.02038 -0.168553,-0.04661 -0.253907,-0.07031 -0.05885,-0.0069 -0.0763,-0.01045 -0.146484,-0.01953 0.04192,0.03313 0.08787,0.06152 0.128906,0.0957 0.112918,0.09406 -0.01901,0.01247 -0.208984,-0.105469 -0.728332,-0.09865 -1.484718,-0.229233 -0.945312,-0.314453 -0.234963,-0.05139 -0.460004,-0.118628 -0.632813,-0.267578 -0.228808,-0.09664 -0.453365,-0.194929 -0.53125,-0.263672 -0.250919,-0.108653 -0.50234,-0.245838 -0.765625,-0.402344 -0.08157,-0.02981 -0.194683,-0.06391 -0.25,-0.08594 -0.154199,-0.06141 -0.293003,-0.154058 -0.429688,-0.25 -0.151081,-0.06563 -0.315856,-0.141028 -0.414062,-0.169922 0.278725,0.113019 0.30317,0.108737 0.306641,0.0957 -0.06455,-0.03488 -0.09646,-0.06142 -0.138672,-0.0918 -0.02942,-0.01626 -0.05459,-0.03016 -0.08984,-0.04883 -0.04461,-0.01194 -0.09561,-0.01403 -0.136719,-0.03125 -0.07704,-0.03227 -0.222751,-0.142037 -0.203125,-0.144531 -0.17222,-0.08423 -0.350497,-0.167535 -0.488281,-0.228516 0.09033,0.06972 0.187305,0.130543 0.275391,0.203125 0.01959,0.01614 -0.07733,-0.01919 -0.117188,-0.02734 0.03977,0.0182 0.07794,0.03941 0.117188,0.05859 -0.778942,-0.261012 -0.293607,-0.09468 -0.117188,-0.05859 -0.05675,-0.02597 -0.114368,-0.05023 -0.167969,-0.08203 -0.08013,-0.04754 -0.151712,-0.108582 -0.226562,-0.164062 -0.09076,-0.06727 0.03425,-0.01913 0.236328,0.07031 -0.0331,-0.02555 -0.06627,-0.05094 -0.09961,-0.07617 -0.183105,-0.03809 -0.39154,-0.08254 -0.50586,-0.09961 -0.0558,-0.0083 -0.111808,-0.01972 -0.164062,-0.04102 -0.725859,-0.295525 -0.911506,-0.392275 -1.117188,-0.576172 -0.091,-0.04751 -0.19256,-0.102005 -0.242187,-0.140625 -0.151515,-0.117912 -0.272544,-0.231238 -0.398438,-0.34375 -0.241345,-0.101305 -0.421688,-0.264934 -0.603515,-0.455079 -0.206531,-0.115363 -0.304197,-0.183579 -0.445313,-0.269531 l -0.002,-0.002 c -0.376264,-0.229343 -0.624238,-0.407957 -0.777344,-0.617187 -0.02987,-0.0221 -0.07633,-0.07107 -0.125,-0.125 -0.04037,-6e-6 -0.08072,6e-6 -0.121093,0 -0.443537,-1.54e-4 -0.886543,-4.31e-4 -1.330079,0 -0.0619,-3.33e-4 -0.123632,0.0024 -0.185547,0.002 -0.08503,-0.0012 -0.170834,-6.15e-4 -0.255859,-0.002 -0.0065,-7.4e-5 -0.01304,6.8e-5 -0.01953,0 -0.07854,-8.28e-4 -0.157781,-0.0024 -0.236328,-0.002 -0.04124,2.34e-4 -0.123149,0.04124 -0.123047,0 v -0.002 c -1.050478,-0.01369 -0.637421,-0.180512 -0.294922,-2.210937 -0.01368,-0.01126 -0.02959,-0.01959 -0.04297,-0.03125 -0.09082,-0.07913 -0.166846,-0.167403 -0.24414,-0.255859 -2.290858,0.03182 -4.582027,0.03294 -6.873047,0.02539 -0.879145,-0.0042 -1.757571,-0.0011 -2.636719,0 -0.149129,1.92e-4 -0.298136,1.3e-5 -0.447266,0 -0.05871,-1.2e-5 -0.173073,0.05865 -0.175781,0 -1.519528,-0.0097 -0.800564,0.09674 -0.302734,-2.75 -0.09418,-0.518864 -0.192225,-0.966878 -0.285157,-1.304687 -0.67255,0.0098 -1.345356,0.01955 -2.017578,0.02344 -0.573402,0.07188 -1.139096,-0.07109 -1.707031,-0.142578 -0.01563,-3.4e-5 -0.03126,3.5e-5 -0.04687,0 -0.10816,6.42e-4 -1.141641,0.01596 -1.142578,0.0078 -0.816652,0.06092 -0.578119,-0.133597 -0.224609,-1.517578 -0.680705,-3.931957 -1.630629,-3.815302 0.210937,-3.972656 0.508292,-0.02686 1.028127,-0.03126 1.541016,0.0098 0.495462,7.63e-4 0.990866,0.0017 1.486328,0.002 -0.392434,-0.580817 -0.751433,-1.224167 -0.939453,-1.916016 -0.10251,-0.377201 1.459021,-0.755612 1.761719,-0.80664 0.191667,-0.03231 0.386246,-0.02845 0.580078,-0.04297 0.05141,0.0024 0.102862,0.0058 0.154296,0.0078 0.158854,-0.06783 0.391824,-0.144865 0.541016,-0.179687 -0.011,-0.116624 -0.01124,-0.231996 -0.0098,-0.349609 -0.01356,-0.05395 -0.02014,-0.06909 -0.03516,-0.13086 -0.08531,-0.350962 -0.106745,-0.560096 -0.105468,-0.763672 -0.02201,-0.131787 -0.05913,-0.356354 -0.105469,-0.646484 -0.180158,-0.594922 -0.161975,-1.023119 -0.105469,-1.615234 1.48e-4,-0.0016 -0.0049,0.0782 -0.01172,0.0098 -0.013,-0.292339 -0.0071,-0.586416 -0.0059,-0.878906 -2.4e-4,-0.2569 -1.23e-4,-0.512631 0,-0.769531 -0.01712,-1.208212 0.0429,-0.747695 0.867187,-2.650391 3.001485,-0.650987 4.123742,-0.661165 1.265625,-0.662109 0.14744,-0.05051 0.29322,-0.107635 0.445313,-0.140625 0.210841,-0.04573 0.427359,-0.06893 0.642578,-0.08398 0.152962,-0.01069 0.305673,0.0051 0.458984,0.0078 0.195745,0.03044 0.381168,0.01266 0.578125,0.0098 0.224843,-0.0011 0.448988,0.0015 0.673828,0.002 0.21615,-0.08616 0.456959,-0.121351 1.03125,-0.164063 0.149604,-0.01113 0.299715,0.02082 0.449219,0.0332 0.04282,0.0035 0.218895,0.02435 0.113281,0.0078 0.264703,-0.01463 0.529943,-0.0098 0.794922,-0.0078 0.253559,9.33e-4 0.506207,3e-6 0.759766,0 h 0.01758 c 0.268635,-0.09313 0.474443,-0.142792 1.025391,-0.162109 0.30434,-0.01067 0.373603,0.03131 0.601562,0.05273 0.02653,0.0025 -0.05366,-0.01017 -0.08008,-0.01367 0.263619,-0.01416 0.527136,-0.0099 0.791016,-0.0078 0.30915,-0.08595 0.634181,-0.134873 1.001953,-0.16211 0.1972,-0.0146 0.39479,0.02791 0.591797,0.04492 -0.01008,-0.0016 -0.03873,0.003 -0.03125,-0.0039 0.03076,-0.02852 0.651607,-0.01 0.722656,-0.0098 0.31807,0.0025 0.637004,2.47e-4 0.955078,0 0.261564,3.2e-5 0.521638,3.2e-5 0.783203,0 0.371823,-4.6e-5 0.745365,-6e-6 1.117188,0 0.23893,-2e-6 0.477868,-10e-7 0.716797,0 h 0.779297 0.365234 c 0.01433,-0.0059 0.02654,-0.01591 0.04102,-0.02148 0.312761,-0.120561 0.66418,-0.09382 0.996093,-0.140625 z m -3.816406,25.017578 c -0.311444,-0.372005 -0.206515,-0.248423 -0.275391,-0.330078 -0.0089,-0.0052 -0.01664,-0.01209 -0.02539,-0.01758 0.0046,0.0011 0.0091,0.0028 0.01367,0.0039 -0.04036,-0.04784 -0.220403,-0.261376 -0.185547,-0.220703 -0.003,-0.0013 -0.01034,-0.008 -0.01172,-0.0078 -0.01553,0.0027 0.06512,0.0988 0.169922,0.216797 0.0027,0.0018 0.005,0.0043 0.0078,0.0059 0.109374,0.122984 0.236277,0.263902 0.306641,0.349609 z m -0.287109,-0.34375 c 0.0025,0.003 0.0088,0.01025 0.01172,0.01367 0.01659,0.0097 0.02963,0.02439 0.04687,0.0332 0.004,0.0021 0.01334,0.0038 0.01758,0.0059 -0.01607,-0.01769 -0.02448,-0.02651 -0.04102,-0.04492 -0.01167,-0.0028 -0.02349,-0.005 -0.03516,-0.0078 z m 0.03516,0.0078 c 0.02273,0.0054 0.04561,0.01026 0.06836,0.01563 -0.08956,-0.07782 -0.147773,-0.14548 -0.259765,-0.228516 -0.0067,-0.005 -0.0066,-0.0024 -0.01172,-0.0059 0.0726,0.08354 0.121988,0.128417 0.203125,0.21875 z m 0.06836,0.01563 c 0.02507,0.02178 0.04868,0.04311 0.07227,0.06445 0.04541,0.0182 0.09499,0.03656 0.150391,0.05469 -0.0025,-0.01705 0.0023,-0.04464 0.002,-0.06445 -0.07502,-0.01756 -0.149621,-0.03701 -0.22461,-0.05469 z m 0.07227,0.06445 c -0.02997,-0.01202 -0.07547,-0.02335 -0.09961,-0.03516 0.112133,0.123408 0.250912,0.289783 0.287109,0.3125 0.07306,0.04584 0.152217,0.07765 0.232422,0.109376 -0.04942,-0.05257 -0.104083,-0.09927 -0.160157,-0.15625 -0.04257,-0.02017 -0.07433,-0.04767 -0.09375,-0.08398 -0.04729,-0.04635 -0.112076,-0.0977 -0.166015,-0.146484 z m 4.177734,2.488281 c 0.146424,0.07162 0.223672,0.114248 0.339844,0.175781 0.01011,0.0027 0.02101,0.0034 0.03125,0.0059 0.0014,3.33e-4 0.0025,0.0016 0.0039,0.002 0.0044,0.0011 0.0092,5.38e-4 0.01367,0.002 -0.01108,-0.0052 -0.02211,-0.01041 -0.0332,-0.01563 -0.0013,-6.18e-4 -0.0026,-0.0013 -0.0039,-0.002 -0.126999,-0.05941 -0.248636,-0.129295 -0.376953,-0.185547 -0.0095,-0.0042 0.02782,0.01727 0.02539,0.01758 z m 0.375,0.183594 c 0.01202,0.01168 0.03605,0.0276 0.05469,0.04102 0.007,0.0039 0.01483,0.008 0.02148,0.01172 -0.02549,-0.01753 -0.05033,-0.0359 -0.07617,-0.05273 z m 1.746094,0.945312 c 0.14077,0.06096 0.286709,0.112885 0.433594,0.16211 -0.04569,-0.05033 -0.08238,-0.107717 -0.123047,-0.16211 -0.05114,-0.02782 -0.09599,-0.0639 -0.142578,-0.09766 -0.172707,0.004 -0.238241,0.03563 -0.167969,0.09766 z m 0.167969,-0.09766 c 0.0254,-5.95e-4 0.03629,-0.005 0.06836,-0.0039 -0.375407,-0.556974 -0.5748,-1.255066 -1.060547,-1.720703 -0.415821,-0.398606 0.354952,1.01016 0.773438,1.517578 0.05152,0.02723 0.108029,0.0467 0.154297,0.08398 0.06899,0.0556 0.0586,0.07721 0.0078,0.07813 0.01857,0.01545 0.03709,0.03075 0.05664,0.04492 z m 0.06836,-0.0039 c 0.02353,0.03491 0.04909,0.06795 0.07422,0.101562 0.196787,0.107075 0.414118,0.187266 0.626953,0.273438 l -0.648437,-0.376953 c -0.02886,-0.0019 -0.02802,0.0028 -0.05273,0.002 z m 0.197266,0.263672 c 0.02035,0.02241 0.0332,0.05078 0.05469,0.07227 0.01255,0.01255 0.02971,0.01787 0.04297,0.0293 0.238334,0.100665 0.451374,0.183185 0.681641,0.263672 0.03967,-0.0052 0.0828,-0.0094 0.136718,-0.01367 l -0.3125,-0.183594 c -0.213839,-0.04861 -0.413665,-0.104345 -0.603515,-0.167968 z m 0.916015,0.351562 0.216797,0.125 c 0.03141,0.01064 0.06747,0.01266 0.09766,0.02539 0.05333,0.02248 -0.06286,-0.01454 -0.08789,-0.01953 l 0.212891,0.123046 c -0.08073,-0.02632 -0.158638,-0.09327 -0.242188,-0.07813 -0.07962,0.01443 0.148996,0.06514 0.228516,0.08008 0.092,0.01729 0.184719,0.0293 0.277343,0.04297 -0.01912,-0.01185 -0.03499,-0.01911 -0.05469,-0.03125 -0.05234,-0.01625 -0.09083,-0.02351 -0.144531,-0.04102 -0.112574,-0.03669 -0.392899,-0.26004 -0.285157,-0.210938 0.101197,0.04612 0.273912,0.155972 0.429688,0.251953 0.05215,0.0162 0.09386,0.02406 0.144531,0.03906 -0.337537,-0.261772 -0.696373,-0.497248 -1.070312,-0.703125 -0.165698,-0.09123 0.281342,0.254255 0.421875,0.380859 -0.07419,0.0034 -0.08749,0.01107 -0.144532,0.01563 z m 0.792969,0.306641 c 0.0033,0.0025 0.0065,0.0053 0.0098,0.0078 0.01305,0.0018 0.026,0.0041 0.03906,0.0059 -0.01698,-0.0049 -0.03166,-0.0086 -0.04883,-0.01367 z m 0.04883,0.01367 c 0.05032,0.01466 0.09587,0.0275 0.144531,0.04102 0.05798,0.0068 0.101562,0.01326 0.144532,0.01758 -0.03739,-0.01165 -0.07605,-0.01904 -0.113282,-0.03125 h -0.002 c -0.05819,-0.0079 -0.115658,-0.01933 -0.173828,-0.02734 z M 68.197266,79.1875 c -0.01414,0.0019 -0.03641,0.0019 -0.04883,0.0039 0.07668,0.01677 0.148844,0.04184 0.224609,0.06055 -0.0497,-0.01669 -0.118923,-0.04458 -0.175781,-0.06445 z m 1.376953,0.417969 c 0.121518,0.03106 0.241217,0.06579 0.347656,0.08984 -0.02674,-0.0144 -0.04731,-0.02336 -0.07422,-0.03906 -0.119816,-0.0325 -0.240776,-0.06107 -0.359375,-0.09766 0.02793,0.01722 0.05774,0.03025 0.08594,0.04687 z m 0.347656,0.08984 c 0.06547,0.03525 0.137766,0.08189 0.181641,0.0957 0.0523,0.01646 0.107286,0.02284 0.160156,0.03711 -0.05353,-0.03099 -0.107129,-0.06161 -0.160156,-0.09375 -0.06457,-0.01346 -0.109131,-0.02268 -0.181641,-0.03906 z m 0.181641,0.03906 c 0.0394,0.0082 0.07511,0.01427 0.111328,0.02148 -0.04503,-0.0114 -0.08979,-0.02358 -0.134766,-0.03516 0.0078,0.0047 0.01568,0.009 0.02344,0.01367 z m 0.111328,0.02148 c 0.11001,0.02784 0.218115,0.06197 0.328125,0.08984 -0.01096,-0.0093 -0.02235,-0.01792 -0.0332,-0.02734 -0.07153,-0.01286 -0.198619,-0.04333 -0.294922,-0.0625 z m 0.328125,0.08984 c 0.0095,0.008 0.01775,0.0175 0.02734,0.02539 0.0081,1e-4 0.01017,-7.9e-5 0.01758,0 -0.0064,-0.0046 -0.0152,-0.0049 -0.02148,-0.0098 -0.0055,-0.0042 -0.01014,-0.0094 -0.01563,-0.01367 -0.0026,-6.6e-4 -0.0052,-0.0013 -0.0078,-0.002 z m 0.0078,0.002 c 0.02742,0.007 0.05463,0.01448 0.08203,0.02148 0.14047,2.03e-4 0.132253,-0.0052 -0.111328,-0.04883 0.01045,0.0084 0.01871,0.0191 0.0293,0.02734 z m 0.08203,0.02148 c -0.01424,-2.1e-5 -0.02598,0.0022 -0.04492,0.002 0.04874,0.03468 0.108904,0.04747 0.164062,0.07031 0.09892,0.0189 0.195782,0.04628 0.294922,0.06445 0.05003,0.0038 0.121057,0.01014 0.0918,0.002 -0.167761,-0.04935 -0.336368,-0.09525 -0.50586,-0.138671 z m 0.414063,0.136718 c -0.03088,-0.0023 -0.03781,-0.0015 -0.05664,-0.002 -0.05791,-0.01138 -0.115919,-0.02182 -0.173828,-0.0332 0.16989,0.05761 0.351503,0.09379 0.525391,0.136719 0.09577,0.02364 0.390497,0.042 0.294922,0.01758 -0.194152,-0.0496 -0.392358,-0.08294 -0.589844,-0.119141 z m -0.230469,-0.03516 c -0.02261,-0.0077 -0.04258,-0.02024 -0.06445,-0.0293 -0.04537,-0.0087 -0.08955,-0.02201 -0.134765,-0.03125 0.01083,0.0085 0.0203,0.01899 0.03125,0.02734 0.05603,0.01101 0.111942,0.02219 0.167968,0.0332 z m -0.199218,-0.06055 c -0.01593,-0.01255 -0.03118,-0.02615 -0.04688,-0.03906 -0.04254,-5.25e-4 -0.0285,8.74e-4 -0.0918,0 -0.02895,-0.0056 -0.05863,-0.0091 -0.08789,-0.01367 0.07534,0.01816 0.150531,0.03719 0.226563,0.05273 z m 2.658203,0.644532 c 0.0078,0.0011 0.01559,0.0028 0.02344,0.0039 -0.174899,-0.09843 -0.321531,-0.181414 -1.041016,-0.552735 -0.06359,-0.03282 0.09999,0.10681 0.164063,0.138672 0.499911,0.24859 0.689828,0.353737 0.853516,0.410157 z m 0.02344,0.0039 c 0.0027,0.0015 0.013,0.0083 0.01563,0.0098 0.155268,0.04798 0.295184,0.05308 0.667969,0.08594 -0.22791,-0.03176 -0.455653,-0.06416 -0.683594,-0.0957 z m 31.341792,-5.125 c -0.0119,7.01e-4 0.10996,-0.01001 0.16407,-0.01953 0.019,-0.0034 -0.0395,-0.0027 -0.0586,0 -0.0356,0.005 -0.0703,0.01244 -0.10547,0.01953 z m 2.66211,-0.546875 c -0.047,0.02205 -0.0962,0.03906 -0.14257,0.0625 -0.13012,0.06582 0.22371,-0.08896 0.41211,-0.146485 -0.10426,0.03624 -0.18421,0.05845 -0.26954,0.08398 z m 9.20508,-14.669922 c 0.0322,-0.01714 0.0641,-0.03475 0.0957,-0.05273 -0.0147,-0.004 -0.0271,-0.0098 -0.041,-0.01562 -0.0261,0.009 -0.052,0.01842 -0.0781,0.02734 0.0205,0.0092 0.0211,0.02241 0.006,0.04297 0.003,-2.44e-4 0.0151,-0.0017 0.0176,-0.002 z m 0.0957,-0.05273 c 0.0138,0.0038 0.0256,0.01115 0.0391,0.01367 0.0512,-0.05 0.0643,-0.05157 0.10937,-0.09375 -0.0168,0.0061 -0.0339,0.01155 -0.0508,0.01758 -0.0329,0.02028 -0.064,0.04335 -0.0977,0.0625 z M 85.5625,50.5 c 0.04525,0.01029 0.09153,0.0196 0.136719,0.0293 0.02394,0.0051 -0.04433,-0.02258 -0.06836,-0.02734 -0.03021,-0.006 -0.04447,0.0017 -0.06836,-0.002 z m 40.40234,0.746094 c -0.10479,7.49e-4 -0.24256,0.01095 -0.30664,0.03711 -0.0466,0.01902 -0.0579,0.0252 -0.10156,0.04297 0.17252,-0.01653 0.34448,-0.03388 0.51563,-0.06055 0.0684,-0.01065 -0.003,-0.02028 -0.10743,-0.01953 z m -1.78711,0.673828 c -0.22741,0.07865 -0.48343,0.164214 -0.61914,0.236328 -0.009,0.0087 -0.0198,0.01666 -0.0293,0.02539 0.0638,-0.01654 0.17985,-0.05659 0.25976,-0.08008 0.12855,-0.06282 0.25999,-0.119141 0.38867,-0.18164 z m -0.64843,0.261719 c -0.003,9e-4 -0.0103,0.005 -0.0137,0.0059 -0.0266,0.01801 -0.0576,0.04792 -0.0898,0.07617 0.005,-0.0011 0.0121,-4.89e-4 0.0176,-0.002 0.0289,-0.02636 0.0571,-0.05361 0.0859,-0.08008 z m -0.0859,0.08008 -0.002,0.002 c 0.002,-2.08e-4 0.004,2.06e-4 0.006,0 0.002,-9.93e-4 0.004,-0.0029 0.006,-0.0039 -0.003,6.02e-4 -0.007,0.0013 -0.01,0.002 z m -0.002,0.002 c -0.005,6.3e-4 -0.0126,0.0013 -0.0176,0.002 -0.008,0.0067 -0.0139,0.01064 -0.0215,0.01758 0.0116,-0.0055 0.0236,-0.01015 0.0352,-0.01563 0.001,-0.0012 0.003,-0.0027 0.004,-0.0039 z m -0.0176,0.002 0.002,-0.002 c -0.0131,0.0027 -0.031,0.0029 -0.043,0.0059 0.0114,-0.0015 0.0293,-0.0024 0.041,-0.0039 z m 0.0918,-0.07813 c 0.009,-0.0059 0.0217,-0.02123 0.0293,-0.02539 0.003,-0.0016 0.0106,-0.0042 0.0137,-0.0059 0.0156,-0.01434 0.0313,-0.02862 0.0469,-0.04297 -0.1061,0.0466 -0.21309,0.08984 -0.31641,0.142578 0.0475,-0.01065 0.16682,-0.05296 0.22656,-0.06836 z m 0.19727,-0.169922 c -0.009,0.0034 -0.0198,0.0043 -0.0293,0.0078 -0.0883,0.03292 -0.33314,0.173439 -0.24414,0.142578 0.0774,-0.02682 0.14974,-0.07088 0.22461,-0.107422 0.0159,-0.01467 0.0329,-0.02832 0.0488,-0.04297 z m -2.37695,0.892578 c -0.0114,0.0034 -0.0185,0.0029 -0.0273,0.0059 -0.11036,0.03712 -0.38674,0.173825 -0.3164,0.146484 0.1156,-0.04837 0.22935,-0.101142 0.34375,-0.152344 z m -2.48438,0.908203 c -0.006,0.0019 -0.0176,-5.75e-4 -0.0234,0.002 -0.0877,0.03236 -0.16308,0.09403 -0.24414,0.140626 0.0891,-0.04759 0.17846,-0.09506 0.26758,-0.142579 z m -0.38086,0.173829 c 0.11355,-0.02503 -0.23169,0.0168 -0.34765,0.02539 -0.0295,0.0081 -0.0583,0.01778 -0.0879,0.02539 -0.0199,0.01442 -0.0422,0.02529 -0.0625,0.03906 0.16613,-0.02964 0.33326,-0.05353 0.49804,-0.08984 z m -0.83789,0.126953 c 0.0666,-0.01633 -0.13781,0.01405 -0.20508,0.02734 -0.0468,0.0093 -0.0917,0.02503 -0.13671,0.04102 -0.011,0.0039 -0.0191,0.0092 -0.0312,0.01563 0.1243,-0.02793 0.24931,-0.05365 0.37304,-0.08398 z m -1.24414,0.363281 c -0.056,0.01586 -0.11549,0.0222 -0.16797,0.04687 -0.0278,0.01309 -0.08,0.05023 -0.11718,0.07227 0.0834,-0.03214 0.1703,-0.05523 0.25195,-0.0918 0.0326,-0.01459 0.0377,-0.02277 0.0332,-0.02734 z m -0.15234,0.01563 c -0.17438,0.03086 -0.44415,0.09807 -0.56836,0.154297 -0.0716,0.03243 -0.13294,0.08453 -0.19922,0.126953 0.16118,-0.03986 0.32104,-0.08586 0.48242,-0.125 0.0905,-0.0551 0.19076,-0.112336 0.28516,-0.15625 z m -50.050783,0.582031 c -0.02073,0.0093 -0.04176,0.01802 -0.0625,0.02734 0.0078,-3.5e-5 0.01563,2.6e-5 0.02344,0 0.01305,-0.0091 0.02594,-0.0184 0.03906,-0.02734 z m -15.205078,0.08984 c 0.0082,0.01873 0.01532,0.03789 0.02344,0.05664 0.0031,-0.0081 0.0028,-0.0076 0.0059,-0.01562 -0.01009,-0.01347 -0.01926,-0.02752 -0.0293,-0.04102 z m 8.160156,0.04883 c -0.05886,0.02593 -0.05135,0.02448 -0.105469,0.04883 h 0.03711 c 0.01991,-0.01522 0.05052,-0.03488 0.06836,-0.04883 z m 52.816405,1.052734 c -0.17276,0.0914 -0.15144,0.0828 -0.0195,0.02344 0.008,-0.0098 0.0118,-0.01357 0.0195,-0.02344 z m -1.39062,1.3125 c -0.007,5.76e-4 -0.0143,0.0033 -0.0215,0.0039 -0.0253,0.04923 -0.0451,0.0908 -0.0625,0.132812 0.0827,1.75e-4 0.14634,0.0016 0.24414,0 0.0227,-0.02257 0.0643,-0.07108 0.0898,-0.09766 -0.0926,-0.01841 -0.1931,-0.04358 -0.25,-0.03906 z m 13.02734,0.06445 -0.44727,0.322265 c 0.0107,-0.0036 0.0226,-0.0041 0.0332,-0.0078 0.10387,-0.03638 0.33382,-0.245545 0.41406,-0.314453 z m -76.611328,1.103515 c 0.0096,0.02604 0.01158,0.03594 0.02148,0.0625 0.01054,0.02829 0.08103,0.08968 0.06445,0.06445 -0.02805,-0.04269 -0.05767,-0.08441 -0.08594,-0.126953 z m 71.548828,0.433594 c -0.18956,0.09327 -0.36272,0.2155 -0.53906,0.333984 0.0415,-0.0084 0.0838,-0.01416 0.125,-0.02344 0.13802,-0.103846 0.56904,-0.386801 0.41406,-0.310547 z m 0.29492,0.107422 c -0.0389,0.02086 -0.0845,0.04175 -0.13086,0.06641 0.007,-7.09e-4 0.013,-0.0013 0.0195,-0.002 -0.0101,0.0051 0.20768,-0.116189 0.11133,-0.06445 z m -72.404295,0.412109 c -0.0039,4.2e-4 -0.0078,0.0015 -0.01172,0.002 0.02074,0.0025 0.04171,0.0039 0.0625,0.0059 0.01706,0.0016 -0.03374,-0.0096 -0.05078,-0.0078 z m 60.021485,0.05273 c -0.10869,0.04312 -0.21291,0.09623 -0.32031,0.142579 -0.0115,0.01084 -0.0202,0.01804 -0.0312,0.0293 0.16691,-0.0753 0.20724,-0.08126 0.30664,-0.13086 0.0101,-0.005 0.0322,-0.03178 0.0449,-0.04102 z M 57.320312,72.052734 c 0.01418,0.01274 0.0305,0.02273 0.04492,0.03516 0.0016,-0.01041 0.0023,-0.02466 0.0039,-0.03516 -0.01628,2.52e-4 -0.03255,-2.48e-4 -0.04883,0 z m 1.142579,1.158204 c 0.0134,0.014 0.01973,0.01935 0.0293,0.0293 0.0036,0.0037 0.01174,0.008 0.01562,0.01172 -0.01244,-0.01296 -0.02466,-0.02611 -0.03711,-0.03906 -0.0025,-0.0011 -0.0053,-4.75e-4 -0.0078,-0.002 z m 2.677734,2.134765 c 8.8e-4,0.0048 0.05735,0.08398 0.09375,0.134766 0.01793,0.0059 0.03661,0.01005 0.05469,0.01563 -0.09511,-0.0995 -0.149993,-0.158834 -0.148437,-0.150391 z m 0.236328,0.294922 c 0.07229,0.06348 0.150464,0.116407 0.228516,0.169922 -0.05652,-0.05426 -0.09371,-0.0935 -0.140625,-0.140625 -0.02578,-0.01079 -0.06754,-0.01894 -0.08789,-0.0293 z m 1.205078,0.326172 c 0.04142,0.05729 0.08611,0.11217 0.126953,0.169922 0.09236,0.02252 0.136074,0.03782 0.0293,0.03711 h -0.002 c 0.140636,0.19947 0.279187,0.399406 0.423828,0.595703 0.25082,0.08002 0.513201,0.133555 0.769532,0.201172 -0.454997,-0.327581 -0.905675,-0.659893 -1.347657,-1.003906 z m -0.623047,0.105469 c 0.02203,0.04482 0.04775,0.08484 0.08594,0.109375 0.0738,0.04742 0.154064,0.08777 0.232422,0.128906 -0.0548,-0.05384 -0.15068,-0.14063 -0.230469,-0.21875 -0.02791,-0.0074 -0.06181,-0.01113 -0.08789,-0.01953 z m 15,0.160156 c 0.132316,0.107163 0.238844,0.197118 0.4375,0.345703 -0.272459,-0.321586 -0.303972,-0.337343 -0.4375,-0.345703 z m -11.607422,1.433594 c -0.07009,-0.03607 -0.02283,0.01604 0.05664,0.08594 0.05167,0.0088 0.0991,0.02413 0.150391,0.0332 -0.06952,-0.03899 -0.136179,-0.08267 -0.207032,-0.11914 z m 0.228516,0.21289 c 0.06689,0.04886 0.13756,0.104162 0.185547,0.126953 0.170255,0.07257 0.333908,0.136105 0.224609,0.07422 -0.132561,-0.07507 -0.274238,-0.132201 -0.410156,-0.201172 z m 0.509766,0.228516 c -0.0028,0.001 -0.0061,0.0015 -0.0098,0.002 0.0095,0.0023 0.01778,0.0076 0.02734,0.0098 -0.0059,-0.0039 -0.0117,-0.0078 -0.01758,-0.01172 z m 0.216797,0.18164 c 0.08335,0.04434 0.265001,0.147699 0.203125,0.103516 -0.03347,-0.0239 -0.06789,-0.04663 -0.101563,-0.07031 -0.03684,-0.01275 -0.06635,-0.02065 -0.101562,-0.0332 z m 3.095703,0.332032 c 0.314286,0.334413 0.590365,0.710023 0.921875,1.02539 -0.326188,-0.32428 -0.61309,-0.703824 -0.921875,-1.02539 z m 0.04492,0.916015 c 0.01071,0.0067 0.02248,0.01095 0.0332,0.01758 0.06785,0.0066 0.226845,0.03285 0.238281,0.03125 -0.0043,-0.0029 -0.0057,-0.005 -0.0098,-0.0078 -0.08718,-0.01428 -0.174158,-0.0289 -0.261718,-0.04102 z" />
  <path
     d="m 294.25301,43.777123 c 0,-4.539143 3.65225,-8.283638 8.23748,-8.283638 2.20138,0 4.37749,0.930833 5.93381,2.47206 1.55687,1.541228 2.43187,3.631965 2.43187,5.811578 0,4.539143 -3.71662,8.218255 -8.30184,8.218255 -4.5847,0 -8.30132,-3.679654 -8.30132,-8.218255 z"
     id="path4"
     inkscape:connector-curvature="0"
     style="stroke:#000000;stroke-width:1.07542753"
     sodipodi:nodetypes="sscsss" />
  <flowRoot
     xml:space="preserve"
     id="flowRoot4526"
     style="fill:black;fill-opacity:1;stroke:none;font-family:'Goodbye Despair';font-style:normal;font-weight:500;font-size:53.33333333px;line-height:1.25;letter-spacing:0px;word-spacing:0px;-inkscape-font-specification:'Goodbye Despair, Medium';font-stretch:normal;font-variant:normal;text-anchor:start;text-align:start;writing-mode:lr;font-variant-ligatures:normal;font-variant-caps:normal;font-variant-numeric:normal;font-feature-settings:normal"><flowRegion
       id="flowRegion4528"><rect
         id="rect4530"
         width="235.93221"
         height="104.69492"
         x="36.864407"
         y="144.50847" /></flowRegion><flowPara
       id="flowPara4532" /></flowRoot>  <g
     aria-label="&lt;Missing Assets&gt;"
     transform="matrix(1.1535859,0.9877988,-0.9877988,1.1535859,201.4765,-159.85656)"
     style="font-style:normal;font-variant:normal;font-weight:500;font-stretch:normal;font-size:53.33333206px;line-height:1.25;font-family:'Goodbye Despair';-inkscape-font-specification:'Goodbye Despair, Medium';font-variant-ligatures:normal;font-variant-caps:normal;font-variant-numeric:normal;font-feature-settings:normal;text-align:start;letter-spacing:0px;word-spacing:0px;writing-mode:lr-tb;text-anchor:start;fill:#000000;fill-opacity:1;stroke:none"
     id="flowRoot4534" />
  <rect
     style="fill:none;fill-opacity:1;fill-rule:evenodd;stroke:#000000;stroke-width:5;stroke-miterlimit:4.30000019;stroke-dasharray:none;stroke-opacity:1"
     id="rect849"
     width="258.05084"
     height="244.04237"
     x="22.855934"
     y="84.050842" />
  <rect
     style="fill:none;fill-opacity:1;fill-rule:evenodd;stroke:#000000;stroke-width:2;stroke-miterlimit:4.30000019;stroke-dasharray:none;stroke-opacity:1"
     id="rect849-0"
     width="238.51056"
     height="227.45125"
     x="33.418457"
     y="92.604881" />
  <path
     sodipodi:type="star"
     style="opacity:0.981;fill:#ffffff;fill-opacity:1;fill-rule:evenodd;stroke:#000000;stroke-width:2;stroke-linecap:round;stroke-linejoin:bevel;stroke-miterlimit:4.30000019;stroke-dasharray:none;stroke-dashoffset:1.00157475;stroke-opacity:1"
     id="path1111"
     sodipodi:sides="3"
     sodipodi:cx="68.19915"
     sodipodi:cy="50.504227"
     sodipodi:r1="36.614727"
     sodipodi:r2="12.533899"
     sodipodi:arg1="-1.5707963"
     sodipodi:arg2="-0.52359878"
     inkscape:flatsided="true"
     inkscape:rounded="0"
     inkscape:randomized="0"
     d="m 68.199151,13.8895 31.709282,54.922091 -63.418567,-2e-6 z"
     inkscape:transform-center-y="-6.2669493"
     transform="matrix(0.84592001,0,0,1,136.85965,1.4745763)" />
  <path
     sodipodi:type="star"
     style="opacity:0.981;fill:#ffffff;fill-opacity:1;fill-rule:evenodd;stroke:#000000;stroke-width:2;stroke-linecap:round;stroke-linejoin:bevel;stroke-miterlimit:4.30000019;stroke-dasharray:none;stroke-dashoffset:1.00157475;stroke-opacity:1"
     id="path1111-3"
     sodipodi:sides="3"
     sodipodi:cx="68.19915"
     sodipodi:cy="50.504227"
     sodipodi:r1="36.614727"
     sodipodi:r2="12.533899"
     sodipodi:arg1="-1.5707963"
     sodipodi:arg2="-0.52359878"
     inkscape:flatsided="true"
     inkscape:rounded="0"
     inkscape:randomized="0"
     d="m 68.199151,13.8895 31.709282,54.922091 -63.418567,-2e-6 z"
     transform="matrix(0,-0.84592001,1,0,39.098077,101.69765)"
     inkscape:transform-center-x="6.266949" />
  <path
     sodipodi:type="star"
     style="opacity:0.981;fill:#ffffff;fill-opacity:1;fill-rule:evenodd;stroke:#000000;stroke-width:2;stroke-linecap:round;stroke-linejoin:bevel;stroke-miterlimit:4.30000019;stroke-dasharray:none;stroke-dashoffset:1.00157475;stroke-opacity:1"
     id="path1111-35"
     sodipodi:sides="3"
     sodipodi:cx="68.19915"
     sodipodi:cy="50.504227"
     sodipodi:r1="36.614727"
     sodipodi:r2="12.533899"
     sodipodi:arg1="-1.5707963"
     sodipodi:arg2="-0.52359878"
     inkscape:flatsided="true"
     inkscape:rounded="0"
     inkscape:randomized="0"
     d="m 68.199151,13.8895 31.709282,54.922091 -63.418567,-2e-6 z"
     transform="matrix(0,-0.84592001,-0.97434199,0,357.00972,221.23387)"
     inkscape:transform-center-x="-6.106145" />
  <path
     sodipodi:type="star"
     style="opacity:0.981;fill:#ffffff;fill-opacity:1;fill-rule:evenodd;stroke:#000000;stroke-width:2;stroke-linecap:round;stroke-linejoin:bevel;stroke-miterlimit:4.30000019;stroke-dasharray:none;stroke-dashoffset:1.00157475;stroke-opacity:1"
     id="path1111-3-1"
     sodipodi:sides="3"
     sodipodi:cx="68.19915"
     sodipodi:cy="50.504227"
     sodipodi:r1="36.614727"
     sodipodi:r2="12.533899"
     sodipodi:arg1="-1.5707963"
     sodipodi:arg2="-0.52359878"
     inkscape:flatsided="true"
     inkscape:rounded="0"
     inkscape:randomized="0"
     d="m 68.199151,13.8895 31.709282,54.922091 -63.418567,-2e-6 z"
     transform="matrix(-0.84592001,0,0,-1,373.91027,309.77936)"
     inkscape:transform-center-y="6.26695" />
  <ellipse
     style="opacity:0.981;fill:none;fill-opacity:1;fill-rule:evenodd;stroke:#000000;stroke-width:2.49737525;stroke-linecap:round;stroke-linejoin:bevel;stroke-miterlimit:4.30000019;stroke-dasharray:none;stroke-dashoffset:1.00157475;stroke-opacity:1"
     id="path1146"
     cx="302.46341"
     cy="43.881077"
     rx="32.549633"
     ry="32.06139" />
  <rect
     style="fill:#000000;fill-opacity:1;fill-rule:evenodd;stroke-width:0.84718376"
     id="rect1150"
     width="2.1861649"
     height="13.116989"
     x="301.33221"
     y="16.477064" />
  <rect
     style="fill:#000000;fill-opacity:1;fill-rule:evenodd;stroke-width:0.84718376"
     id="rect1150-5"
     width="2.1861649"
     height="13.116989"
     x="301.56647"
     y="57.15535" />
  <rect
     style="fill:#000000;fill-opacity:1;fill-rule:evenodd;stroke-width:0.84718376"
     id="rect1150-6"
     width="2.1861649"
     height="13.116989"
     x="42.164501"
     y="-329.44006"
     transform="rotate(90)" />
  <rect
     style="fill:#000000;fill-opacity:1;fill-rule:evenodd;stroke-width:0.84718376"
     id="rect1150-5-0"
     width="2.1861649"
     height="13.116989"
     x="42.398739"
     y="-288.76178"
     transform="rotate(90)" />
  <rect
     style="fill:#000000;fill-opacity:1;fill-rule:evenodd;stroke-width:0.69269085"
     id="rect1150-5-0-7"
     width="1.7874947"
     height="10.724968"
     x="-115.52795"
     y="-268.78983"
     transform="rotate(120)" />
  <rect
     style="fill:#000000;fill-opacity:1;fill-rule:evenodd;stroke-width:0.69269085"
     id="rect1150-5-0-7-7"
     width="1.7874947"
     height="10.724968"
     x="-240.19475"
     y="-173.86938"
     transform="rotate(150)" />
  <rect
     style="fill:#000000;fill-opacity:1;fill-rule:evenodd;stroke-width:0.69269085"
     id="rect1150-5-0-7-9"
     width="1.7874947"
     height="10.724968"
     x="-285.65375"
     y="128.61467"
     transform="rotate(-150)" />
  <rect
     style="fill:#000000;fill-opacity:1;fill-rule:evenodd;stroke-width:0.69269085"
     id="rect1150-5-0-7-7-6"
     width="1.7874947"
     height="10.724968"
     x="-188.82579"
     y="255.35596"
     transform="rotate(-120)" />
  <rect
     style="fill:#000000;fill-opacity:1;fill-rule:evenodd;stroke-width:0.69269085"
     id="rect1150-5-0-7-5"
     width="1.7874947"
     height="10.724968"
     x="113.15804"
     y="298.43668"
     transform="rotate(-60)" />
  <rect
     style="fill:#000000;fill-opacity:1;fill-rule:evenodd;stroke-width:0.69269085"
     id="rect1150-5-0-7-7-7"
     width="1.7874947"
     height="10.724968"
     x="241.4664"
     y="203.02022"
     transform="rotate(-30)" />
  <rect
     style="fill:#000000;fill-opacity:1;fill-rule:evenodd;stroke-width:0.69269085"
     id="rect1150-5-0-7-9-7"
     width="1.7874947"
     height="10.724968"
     x="281.57275"
     y="-100.07132"
     transform="rotate(30)" />
  <rect
     style="fill:#000000;fill-opacity:1;fill-rule:evenodd;stroke-width:0.69269085"
     id="rect1150-5-0-7-7-6-2"
     width="1.7874947"
     height="10.724968"
     x="188.0638"
     y="-226.30519"
     transform="rotate(60)" />
  <circle
     style="opacity:0.981;fill:none;fill-opacity:1;fill-rule:evenodd;stroke:#000000;stroke-width:6.9949007;stroke-linecap:round;stroke-linejoin:bevel;stroke-miterlimit:4.30000019;stroke-dasharray:none;stroke-dashoffset:1.00157475;stroke-opacity:1"
     id="path1294"
     cx="152.2317"
     cy="206.19511"
     r="96.422066" />
  <circle
     style="opacity:0.981;fill:none;fill-opacity:1;fill-rule:evenodd;stroke:#000000;stroke-width:1.33208239;stroke-linecap:square;stroke-linejoin:bevel;stroke-miterlimit:4.30000019;stroke-dasharray:none;stroke-dashoffset:0;stroke-opacity:1;paint-order:markers stroke fill"
     id="path1314"
     cx="152.75304"
     cy="157.71037"
     r="38.022221" />
  <rect
     style="fill:#000000;fill-opacity:1;fill-rule:evenodd;stroke-width:0.82743567"
     id="rect1318"
     width="6.2628531"
     height="9.7234516"
     x="38.524708"
     y="162.18216"
     transform="matrix(1,0,0.67337491,0.73930118,0,0)" />
  <rect
     style="fill:#000000;fill-opacity:1;fill-rule:evenodd;stroke-width:2.55521464"
     id="rect1322"
     width="6.2628646"
     height="8.1234646"
     x="154.28163"
     y="127.07439" />
  <rect
     style="fill:#000000;fill-opacity:1;fill-rule:evenodd;stroke-width:2.28873777"
     id="rect1324"
     width="6.2669473"
     height="11.284703"
     x="275.18781"
     y="181.34477"
     transform="matrix(1,0,-0.66674238,0.74528827,0,0)" />
  <rect
     style="fill:#000000;fill-opacity:1;fill-rule:evenodd;stroke-width:2.55447984"
     id="rect1322-1"
     width="6.2628646"
     height="8.1187925"
     x="146.75357"
     y="143.53714" />
  <rect
     style="fill:#000000;fill-opacity:1;fill-rule:evenodd;stroke-width:1.79170382"
     id="rect1324-5"
     width="6.2669473"
     height="6.9156108"
     x="-12.997024"
     y="220.25029"
     transform="matrix(1,0,0.72529551,0.68843766,0,0)" />
  <path
     inkscape:connector-curvature="0"
     style="stroke:#000000;stroke-width:2"
     d="M 5.078125,5.7753906 H 341.99112 V 343.44539 H 5.079125 Z"
     id="path2-5" />
</svg>
